<?xml version="1.0" encoding="utf-8"?>
<!-- Generator: Adobe Illustrator 16.0.0, SVG Export Plug-In . SVG Version: 6.00 Build 0)  -->
<!DOCTYPE svg PUBLIC "-//W3C//DTD SVG 1.0//EN" "http://www.w3.org/TR/2001/REC-SVG-20010904/DTD/svg10.dtd">
<svg version="1.0" id="Calque_1" xmlns="http://www.w3.org/2000/svg" xmlns:xlink="http://www.w3.org/1999/xlink" x="0px" y="0px"
	 width="151.998px" height="39.958px" viewBox="0 0 151.998 39.958" enable-background="new 0 0 151.998 39.958"
	 xml:space="preserve">
<g>
	<path fill="#404040" d="M86.163,20.105c0-0.149,0.069-0.23,0.23-0.23h4.24c0.139,0,0.219,0.081,0.219,0.218v0.715
		c0,0.138-0.058,0.207-0.23,0.207h-3.146v1.982h2.788c0.15,0,0.23,0.069,0.23,0.207v0.715c0,0.138-0.058,0.207-0.23,0.207h-2.788
		v2.27h3.227c0.138,0,0.207,0.069,0.207,0.219v0.703c0,0.149-0.058,0.208-0.219,0.208h-4.298c-0.161,0-0.23-0.069-0.23-0.208V20.105
		z"/>
	<path fill="#404040" d="M96.719,27.527H95.9c-0.172,0-0.219-0.081-0.219-0.219v-0.357l-0.023-0.012
		c-0.449,0.311-1.232,0.691-1.936,0.691c-1.555,0-1.705-0.921-1.705-2.131V22.11c0-0.138,0.057-0.23,0.22-0.23h0.841
		c0.148,0,0.207,0.081,0.207,0.23v3.239c0,0.691,0.138,1.128,0.842,1.128c0.494,0,1.256-0.368,1.555-0.519V22.11
		c0-0.138,0.047-0.23,0.219-0.23h0.818c0.162,0,0.219,0.081,0.219,0.23v5.197C96.938,27.458,96.881,27.527,96.719,27.527z"/>
	<path fill="#404040" d="M99.646,27.308c0,0.138-0.058,0.219-0.22,0.219h-0.829c-0.161,0-0.219-0.069-0.219-0.219V22.11
		c0-0.15,0.058-0.23,0.219-0.23h0.818c0.173,0,0.23,0.093,0.23,0.23v0.507l0.022,0.023c0.347-0.323,1.164-0.714,1.706-0.818
		c0.149-0.035,0.253,0,0.276,0.196l0.08,0.773c0.012,0.161,0.024,0.23-0.218,0.276c-0.646,0.126-1.464,0.357-1.867,0.53V27.308z"/>
	<path fill="#404040" d="M104.717,27.619c-2.316,0-2.466-1.693-2.466-3.007c0-1.083,0.242-2.846,2.466-2.846
		c2.235,0,2.548,1.486,2.548,2.846C107.265,25.925,107.103,27.619,104.717,27.619z M104.729,22.871c-0.979,0-1.198,0.623-1.198,1.82
		c0,1.222,0.219,1.821,1.187,1.821c1.049,0,1.256-0.587,1.256-1.821C105.973,23.47,105.777,22.871,104.729,22.871z"/>
	<path fill="#404040" d="M111.078,27.629c-0.38,0-0.91-0.068-1.44-0.253l-0.012,0.012v2.028c0,0.126-0.033,0.23-0.219,0.23h-0.818
		c-0.184,0-0.219-0.081-0.219-0.23V22.11c0-0.15,0.059-0.23,0.219-0.23h0.818c0.161,0,0.207,0.093,0.207,0.23v0.346l0.035,0.023
		c0.415-0.288,1.152-0.691,1.821-0.691c1.509,0,1.9,1.141,1.9,2.88C113.371,26.547,112.898,27.629,111.078,27.629z M111.17,22.939
		c-0.472,0-1.198,0.335-1.544,0.52v2.88c0.519,0.15,0.934,0.196,1.325,0.196c0.83,0,1.118-0.426,1.118-1.877
		C112.069,23.193,111.781,22.939,111.17,22.939z"/>
	<path fill="#404040" d="M115.584,25.049c0.035,1.164,0.449,1.486,1.396,1.486c0.414,0,1.059-0.08,1.498-0.126
		c0.206-0.023,0.275-0.023,0.311,0.196l0.068,0.38c0.035,0.172,0.013,0.264-0.195,0.357c-0.449,0.172-1.29,0.287-1.855,0.287
		c-2.2,0-2.523-1.405-2.523-2.903c0-1.118,0.208-2.961,2.455-2.961c2.062,0,2.431,1.336,2.466,2.581
		c0.011,0.415-0.104,0.703-0.565,0.703H115.584z M115.596,24.185h2.282c0-0.703-0.185-1.383-1.141-1.383
		C115.885,22.801,115.654,23.321,115.596,24.185z"/>
	<path fill="#404040" d="M123.813,26.87c-0.576,0.438-1.35,0.749-2.121,0.749c-1.222,0-1.578-0.668-1.578-1.636
		c-0.012-1.348,0.714-1.924,2.166-1.924h1.475v-0.3c0-0.691-0.253-0.934-1.198-0.934c-0.38,0-1.105,0.058-1.566,0.104
		c-0.23,0.035-0.289,0.023-0.323-0.137l-0.104-0.427c-0.023-0.149,0.011-0.241,0.265-0.346c0.495-0.172,1.405-0.253,1.947-0.253
		c1.994,0,2.235,0.818,2.235,2.108v2.224c0,0.473,0.058,0.484,0.415,0.53c0.173,0.013,0.219,0.046,0.219,0.173v0.484
		c0,0.127-0.08,0.207-0.276,0.243c-0.184,0.034-0.368,0.057-0.541,0.057c-0.542,0-0.876-0.161-0.991-0.703L123.813,26.87z
		 M123.744,24.957h-1.406c-0.575,0-0.945,0.207-0.945,0.968c0,0.506,0.173,0.668,0.715,0.668c0.495,0,1.198-0.288,1.637-0.542
		V24.957z"/>
	<path fill="#404040" d="M131.13,27.527h-0.829c-0.15,0-0.219-0.069-0.219-0.219l0.012-3.238c0-0.68-0.162-1.13-0.83-1.13
		c-0.461,0-1.267,0.37-1.578,0.52v3.849c0,0.138-0.059,0.219-0.219,0.219h-0.818c-0.162,0-0.22-0.069-0.22-0.219V22.11
		c0-0.15,0.058-0.23,0.22-0.23h0.818c0.16,0,0.219,0.081,0.219,0.23v0.346c0.012,0,0.022,0.012,0.034,0.012
		c0.427-0.299,1.233-0.691,1.937-0.691c1.555,0,1.693,1.025,1.693,2.189v3.342C131.35,27.446,131.304,27.527,131.13,27.527z"/>
	<path fill="#404040" d="M89.255,31.926c0.565,0,1.499,0.081,2.109,0.334c0.184,0.082,0.254,0.173,0.219,0.357l-0.104,0.472
		c-0.035,0.139-0.093,0.197-0.299,0.174c-0.565-0.07-1.258-0.15-1.856-0.15c-1.566,0-1.797,1.267-1.797,2.765
		c0,1.509,0.287,2.697,1.797,2.697c0.669,0,1.233-0.07,1.856-0.151c0.219-0.022,0.264,0.035,0.311,0.185l0.092,0.438
		c0.046,0.185-0.012,0.288-0.196,0.369c-0.563,0.242-1.566,0.345-2.132,0.345c-2.569,0-3.11-1.9-3.11-3.859
		C86.145,33.93,86.629,31.926,89.255,31.926z"/>
	<path fill="#404040" d="M94.88,39.75c-2.316,0-2.467-1.693-2.467-3.007c0-1.084,0.243-2.847,2.467-2.847
		c2.235,0,2.546,1.486,2.546,2.847C97.426,38.056,97.266,39.75,94.88,39.75z M94.892,35.002c-0.979,0-1.199,0.622-1.199,1.82
		c0,1.222,0.22,1.821,1.188,1.821c1.048,0,1.256-0.587,1.256-1.821C96.136,35.602,95.939,35.002,94.892,35.002z"/>
	<path fill="#404040" d="M106.599,39.658h-0.829c-0.161,0-0.219-0.069-0.219-0.219v-3.272c0-0.854-0.207-1.095-0.784-1.095
		c-0.426,0-1.117,0.334-1.475,0.519c0,0.115,0.013,0.322,0.013,0.587v3.261c0,0.138-0.047,0.219-0.221,0.219h-0.841
		c-0.149,0-0.195-0.069-0.195-0.219v-3.331c0-0.703-0.185-1.037-0.761-1.037c-0.403,0-1.049,0.288-1.486,0.519v3.848
		c0,0.138-0.058,0.219-0.219,0.219h-0.83c-0.149,0-0.207-0.069-0.207-0.219v-5.197c0-0.149,0.058-0.23,0.207-0.23h0.818
		c0.173,0,0.23,0.092,0.23,0.23v0.334l0.012,0.012c0.449-0.311,1.083-0.657,1.717-0.68c0.668,0,1.221,0.138,1.579,0.806
		c0.575-0.426,1.29-0.806,2.028-0.806c1.521,0,1.67,0.991,1.67,2.143v3.388C106.807,39.577,106.761,39.658,106.599,39.658z"/>
	<path fill="#404040" d="M116.095,39.658h-0.829c-0.161,0-0.219-0.069-0.219-0.219v-3.272c0-0.854-0.207-1.095-0.783-1.095
		c-0.427,0-1.118,0.334-1.476,0.519c0,0.115,0.012,0.322,0.012,0.587v3.261c0,0.138-0.046,0.219-0.219,0.219h-0.842
		c-0.149,0-0.195-0.069-0.195-0.219v-3.331c0-0.703-0.185-1.037-0.761-1.037c-0.403,0-1.049,0.288-1.486,0.519v3.848
		c0,0.138-0.058,0.219-0.219,0.219h-0.83c-0.149,0-0.207-0.069-0.207-0.219v-5.197c0-0.149,0.058-0.23,0.207-0.23h0.818
		c0.173,0,0.23,0.092,0.23,0.23v0.334l0.012,0.012c0.449-0.311,1.083-0.657,1.716-0.68c0.669,0,1.222,0.138,1.579,0.806
		c0.576-0.426,1.291-0.806,2.028-0.806c1.521,0,1.671,0.991,1.671,2.143v3.388C116.303,39.577,116.258,39.658,116.095,39.658z"/>
	<path fill="#404040" d="M118.354,33.181c-0.599,0-0.68-0.334-0.68-0.668c0-0.368,0.127-0.656,0.68-0.656
		c0.565,0,0.681,0.265,0.681,0.656C119.035,32.87,118.932,33.181,118.354,33.181z M118.966,39.438c0,0.127-0.046,0.219-0.208,0.219
		h-0.817c-0.162,0-0.23-0.069-0.23-0.219V34.23c0-0.162,0.068-0.219,0.23-0.219h0.817c0.162,0,0.208,0.092,0.208,0.219V39.438z"/>
	<path fill="#404040" d="M122.285,39.75c-0.576,0-1.349-0.081-1.787-0.254c-0.23-0.091-0.275-0.195-0.241-0.38l0.081-0.38
		c0.034-0.185,0.114-0.197,0.3-0.173c0.506,0.081,1.244,0.139,1.636,0.139c0.737,0,1.037-0.196,1.037-0.657
		c0-0.53-0.196-0.646-0.923-0.75c-1.128-0.161-2.12-0.403-2.12-1.659c0-1.141,0.876-1.74,2.167-1.74
		c0.473,0,1.269,0.069,1.752,0.253c0.195,0.081,0.276,0.173,0.241,0.346l-0.093,0.415c-0.033,0.161-0.103,0.184-0.311,0.161
		c-0.495-0.057-1.141-0.127-1.566-0.127c-0.738,0-0.911,0.208-0.911,0.646c0,0.449,0.277,0.506,0.979,0.622
		c1.095,0.161,2.086,0.379,2.086,1.751C124.612,39.312,123.472,39.75,122.285,39.75z"/>
	<path fill="#404040" d="M127.574,39.75c-0.576,0-1.348-0.081-1.785-0.254c-0.23-0.091-0.277-0.195-0.243-0.38l0.081-0.38
		c0.034-0.185,0.115-0.197,0.3-0.173c0.507,0.081,1.244,0.139,1.637,0.139c0.737,0,1.037-0.196,1.037-0.657
		c0-0.53-0.196-0.646-0.922-0.75c-1.13-0.161-2.12-0.403-2.12-1.659c0-1.141,0.875-1.74,2.166-1.74c0.473,0,1.267,0.069,1.751,0.253
		c0.196,0.081,0.277,0.173,0.242,0.346l-0.092,0.415c-0.035,0.161-0.104,0.184-0.312,0.161c-0.495-0.057-1.141-0.127-1.567-0.127
		c-0.737,0-0.909,0.208-0.909,0.646c0,0.449,0.275,0.506,0.979,0.622c1.095,0.161,2.086,0.379,2.086,1.751
		C129.902,39.312,128.761,39.75,127.574,39.75z"/>
	<path fill="#404040" d="M131.781,33.181c-0.599,0-0.68-0.334-0.68-0.668c0-0.368,0.127-0.656,0.68-0.656
		c0.565,0,0.681,0.265,0.681,0.656C132.462,32.87,132.357,33.181,131.781,33.181z M132.392,39.438c0,0.127-0.045,0.219-0.207,0.219
		h-0.818c-0.161,0-0.23-0.069-0.23-0.219V34.23c0-0.162,0.069-0.219,0.23-0.219h0.818c0.162,0,0.207,0.092,0.207,0.219V39.438z"/>
	<path fill="#404040" d="M136.172,39.75c-2.316,0-2.466-1.693-2.466-3.007c0-1.084,0.242-2.847,2.466-2.847
		c2.236,0,2.547,1.486,2.547,2.847C138.719,38.056,138.557,39.75,136.172,39.75z M136.184,35.002c-0.979,0-1.198,0.622-1.198,1.82
		c0,1.222,0.219,1.821,1.187,1.821c1.049,0,1.257-0.587,1.257-1.821C137.429,35.602,137.232,35.002,136.184,35.002z"/>
	<path fill="#404040" d="M144.503,39.658h-0.828c-0.15,0-0.22-0.069-0.22-0.219l0.012-3.238c0-0.68-0.161-1.129-0.83-1.129
		c-0.461,0-1.267,0.369-1.578,0.519v3.848c0,0.138-0.058,0.219-0.219,0.219h-0.818c-0.161,0-0.219-0.069-0.219-0.219v-5.197
		c0-0.149,0.058-0.23,0.219-0.23h0.818c0.161,0,0.219,0.081,0.219,0.23v0.346c0.012,0,0.022,0.011,0.035,0.011
		c0.425-0.299,1.232-0.691,1.936-0.691c1.556,0,1.693,1.025,1.693,2.189v3.342C144.723,39.577,144.677,39.658,144.503,39.658z"/>
</g>
<polygon fill="#164194" points="151.998,39.656 151.998,16.497 150.022,16.497 150.022,39.656 151.998,39.656 "/>
<g>
	<path fill="#B3B3B3" d="M0.506,14.657c0,0,23.81-3.105,24.481-3.215c1.03-0.169,1.946-0.367,2.8-0.605
		c1.927-0.531,3.699-1.343,5.268-2.412c1.505-1.017,2.904-2.497,4.292-4.12c0.883-1.032,1.809-2.379,2.673-3.678V0
		c-1.025,1.53-2.035,2.847-3.073,4.011c-1.377,1.544-2.821,2.807-4.293,3.755c-1.52,0.985-3.229,1.722-5.083,2.188
		c-0.831,0.211-1.721,0.381-2.721,0.521c-0.658,0.094-1.337,0.166-1.994,0.236c-0.263,0.027-22.35,2.388-22.35,2.388V14.657z"/>
	<path fill="#B3B3B3" d="M32.436,10.634c-1.49,0.863-3.212,1.495-5.116,1.878c-0.813,0.165-1.699,0.3-2.71,0.411
		c-0.594,0.064-1.191,0.117-1.791,0.169c-0.322,0.028-0.646,0.057-0.969,0.086c-7.296,0.66-14.555,1.361-21.344,2.025v1.556
		c6.842-0.831,14.151-1.712,21.445-2.543c0.325-0.039,0.649-0.075,0.974-0.11c0.598-0.066,1.196-0.133,1.797-0.212
		c1.037-0.139,1.945-0.299,2.776-0.489c1.978-0.445,3.765-1.149,5.309-2.092c1.534-0.928,2.892-2.228,4.351-3.817
		c0.907-0.989,1.918-2.385,2.862-3.697V3.228c-1.113,1.522-2.17,2.801-3.215,3.892C35.38,8.606,33.911,9.788,32.436,10.634z"/>
	<path fill="#B3B3B3" d="M36.603,10.253c-1.453,1.342-2.97,2.398-4.51,3.139c-1.504,0.731-3.188,1.244-5.147,1.57
		c-0.81,0.135-1.688,0.246-2.688,0.337L0.506,17.264v1.553l21.113-2.258l2.731-0.29c1.028-0.119,1.927-0.254,2.743-0.41
		c2.031-0.386,3.772-0.963,5.324-1.764c1.585-0.808,3.17-2.153,4.644-3.577c0.988-0.955,1.941-2.188,2.958-3.481V6.521
		C38.845,7.992,37.724,9.219,36.603,10.253z"/>
	<path fill="#B3B3B3" d="M30.859,18.318c-1.383,0.779-2.417,1.228-4.392,1.437c-1.193,0.128-2.42,0.191-3.606,0.25
		c-0.575,0.03-1.15,0.058-1.724,0.095c-3.588,0.207-7.112,0.436-10.707,0.672l-9.925,0.673v1.553l10.023-0.927
		c3.239-0.293,7.004-0.63,10.679-0.932l2.671-0.208c1.043-0.081,1.897-0.167,2.69-0.271c2.031-0.265,3.768-0.678,5.306-1.263
		c1.656-0.625,3.218-1.594,4.781-2.732c1.41-1.027,3.361-3.053,3.363-3.079v-0.548c-1.275,1.254-2.01,1.959-3.406,2.886
		C34.944,17.03,32.099,17.619,30.859,18.318z"/>
	<path fill="#B3B3B3" d="M31.364,21.269c-1.498,0.443-3.186,0.742-5.156,0.916c-0.799,0.069-1.66,0.123-2.634,0.163l-2.656,0.117
		c-6.603,0.309-13.171,0.655-20.412,1.041v1.549c6.917-0.54,13.696-1.065,20.472-1.55l2.649-0.183
		c1.022-0.067,1.87-0.141,2.667-0.231c2.021-0.228,3.749-0.58,5.284-1.074c1.699-0.542,3.356-1.329,4.924-2.337
		c1.158-0.743,2.316-1.629,3.518-2.686v-0.028c-1.323,1.14-2.585,1.392-3.843,2.158C34.637,20.063,33.017,20.785,31.364,21.269z"/>
	<path fill="#B3B3B3" d="M31.119,23.842c-1.509,0.355-3.145,0.584-5.147,0.719c-0.773,0.053-1.604,0.091-2.614,0.123l-2.631,0.094
		c-6.63,0.252-13.353,0.543-20.221,0.843v1.549c6.823-0.47,13.519-0.927,20.271-1.352l2.626-0.159
		c1.029-0.06,1.868-0.119,2.638-0.19c2.041-0.19,3.71-0.465,5.254-0.869c1.73-0.449,3.414-1.109,5.003-1.958
		c1.229-0.657,2.453-1.445,3.722-2.395v-0.662c-1.372,0.998-2.688,1.812-4.005,2.476C34.456,22.848,32.809,23.448,31.119,23.842z"/>
	<path fill="#B3B3B3" d="M30.895,26.365c-1.515,0.279-3.146,0.458-5.133,0.561c-0.749,0.039-1.549,0.067-2.596,0.09l-22.66,0.619
		v1.547l20.095-1.057l2.603-0.133c1.017-0.048,1.847-0.098,2.615-0.158c2.016-0.155,3.674-0.378,5.218-0.704
		c1.752-0.366,3.453-0.901,5.055-1.589c1.29-0.552,2.583-1.224,3.929-2.042v-0.621c-1.438,0.843-2.806,1.52-4.163,2.061
		C34.276,25.571,32.607,26.05,30.895,26.365z"/>
	<path fill="#B3B3B3" d="M30.717,28.897c-2.781,0.375-5.643,0.417-8.411,0.459c-0.635,0.009-1.271,0.019-1.903,0.032L0.506,29.75
		v1.545l19.931-0.866c0.632-0.029,1.265-0.054,1.897-0.08c2.789-0.113,5.671-0.228,8.489-0.68c1.784-0.283,3.501-0.702,5.103-1.246
		c1.327-0.447,2.702-1.026,4.094-1.71V26.12c-1.463,0.687-2.902,1.257-4.283,1.685C34.153,28.298,32.465,28.666,30.717,28.897z"/>
	<path fill="#B3B3B3" d="M30.559,31.447c-2.605,0.217-5.271,0.217-7.851,0.217c-0.803,0-1.604,0-2.407,0.007
		C13.71,31.7,7.171,31.754,0.506,31.813v1.545c6.348-0.217,13.083-0.444,19.817-0.646c0.8-0.026,1.6-0.047,2.4-0.068
		c2.593-0.066,5.273-0.135,7.905-0.421c1.84-0.198,3.513-0.489,5.115-0.89c1.398-0.346,2.834-0.808,4.275-1.363v-0.567
		c-1.488,0.539-2.972,0.978-4.416,1.298C34.017,31.054,32.365,31.298,30.559,31.447z"/>
	<path fill="#B3B3B3" d="M30.457,33.961c-1.085,0.042-2.26,0.063-3.594,0.063c-0.504,0-1.007-0.003-1.51-0.008l-5.128-0.063
		c-3.499-0.026-6.985-0.033-10.256-0.035l-9.464,0.009v1.545l9.486-0.251c3.259-0.081,6.755-0.164,10.243-0.228l5.124-0.068
		c1.405-0.022,3.26-0.063,5.14-0.188c1.84-0.121,3.516-0.305,5.122-0.563c1.445-0.233,2.922-0.547,4.398-0.926v-0.549
		c-1.518,0.354-3.025,0.634-4.489,0.832C33.934,33.748,32.274,33.888,30.457,33.961z"/>
	<path fill="#B3B3B3" d="M25.295,36.389l-5.111-0.055c-6.52-0.092-13.034-0.212-19.678-0.338v1.545
		c6.343-0.042,13.059-0.091,19.682-0.166l5.114-0.077c1.723-0.029,3.41-0.061,5.116-0.119c3.514-0.114,6.661-0.362,9.602-0.754
		v-0.538c-2.951,0.32-6.104,0.489-9.62,0.512C28.698,36.416,26.996,36.404,25.295,36.389z"/>
	<polygon fill="#B3B3B3" points="40.02,39.121 0.506,38.111 0.506,39.656 40.02,39.656 	"/>
</g>
<g>
	<path fill="#B3B3B3" d="M36.463,13.171c-1.501,1.215-2.661,2.078-4.499,2.813c-1.6,0.641-3.317,0.903-5.281,1.173
		c-1.263,0.178-2.583,0.442-3.845,0.526c-0.519,0.036-1.037,0.07-1.556,0.111L0.506,19.321v1.55l20.86-2.039l2.705-0.255
		c1.004-0.096,1.894-0.208,2.723-0.341c2.021-0.328,3.764-0.827,5.325-1.527c1.619-0.72,3.259-1.899,4.782-3.191
		c1.036-0.876,2.034-1.98,3.118-3.186V9.777C38.708,11.144,37.62,12.237,36.463,13.171z"/>
</g>
<path fill="#B3B3B3" d="M56.836,0c0,0,7.112,11.327,8.412,13.404c1.301,2.076,2.786,3.719,8.049,4.835
	c5.261,1.115,7.552,1.642,7.552,1.642v0.403c0,0-3.344-0.713-7.646-1.674c-4.302-0.959-6.061-1.284-8.021-4.013
	c-1.632-2.271-8.346-11.922-8.346-11.922V0z"/>
<path fill="#B3B3B3" d="M56.836,12.935c0,0,6.475,6.783,8.346,8.731c1.985,2.065,4.529,2.83,8.054,3.459
	c3.366,0.601,7.611,1.294,7.611,1.294v0.382c0,0-3.986-0.653-7.611-1.273c-3.553-0.609-6.04-0.949-8.075-2.824
	c-1.822-1.679-8.324-7.775-8.324-7.775V12.935z"/>
<path fill="#B3B3B3" d="M56.836,15.992c0,0,6.157,5.717,8.346,7.669c2.014,1.797,3.646,2.357,8.076,3.142
	c4.431,0.785,7.589,1.273,7.589,1.273v0.404c0,0-4.007-0.659-7.611-1.232c-3.603-0.572-5.899-0.798-8.054-2.546
	c-2.488-2.018-8.346-6.841-8.346-6.841V15.992z"/>
<path fill="#B3B3B3" d="M56.836,19.25c0,0,7.033,5.579,8.348,6.555c1.313,0.975,3.052,2.115,8.097,2.844
	c5.003,0.723,7.568,1.083,7.568,1.083v0.424c0,0-4.536-0.658-7.568-1.04c-3.03-0.382-5.354-0.544-8.076-2.356
	c-2.648-1.763-8.368-5.79-8.368-5.79V19.25z"/>
<path fill="#B3B3B3" d="M56.836,22.382c0,0,7.054,4.697,8.39,5.439c1.336,0.743,2.904,1.954,8.055,2.612
	c5.152,0.658,7.568,0.955,7.568,0.955v0.403c0,0-4.261-0.467-7.589-0.827c-3.328-0.361-5.596-0.849-8.076-2.208
	c-2.48-1.358-8.348-4.786-8.348-4.786V22.382z"/>
<path fill="#B3B3B3" d="M56.836,25.515c0,0,6.235,3.391,8.346,4.45c2.354,1.182,4.389,1.748,8.076,2.187
	c3.622,0.432,7.589,0.85,7.589,0.85v0.382c0,0-3.669-0.394-7.589-0.765c-3.886-0.368-5.271-0.538-8.076-1.783
	c-2.51-1.114-8.346-3.835-8.346-3.835V25.515z"/>
<path fill="#B3B3B3" d="M56.836,28.689c0,0,4.928,2.11,8.39,3.484c3.406,1.351,6.006,1.464,8.076,1.698
	c0.912,0.102,7.547,0.785,7.547,0.785v0.382c0,0-3.965-0.318-7.568-0.636c-3.604-0.317-5.157-0.454-8.076-1.422
	c-2.953-0.98-8.368-2.868-8.368-2.868V28.689z"/>
<path fill="#B3B3B3" d="M56.836,31.926c0,0,4.975,1.542,8.367,2.433c3.391,0.892,6.508,1.253,8.076,1.358
	c1.568,0.107,7.569,0.595,7.569,0.595v0.36c0,0-3.414-0.233-7.591-0.53c-3.378-0.241-6.091-0.496-8.076-0.934
	c-2.201-0.486-8.346-1.946-8.346-1.946V31.926z"/>
<path fill="#B3B3B3" d="M56.836,35.11c0,0,4.068,0.701,8.367,1.414c3.222,0.534,7.588,0.871,8.055,0.892
	c0.467,0.021,7.589,0.51,7.589,0.51v0.381c0,0-4.559-0.235-7.589-0.402c-3.156-0.176-6.294-0.367-8.076-0.553
	c-3.992-0.416-8.346-0.967-8.346-0.967V35.11z"/>
<path fill="#B3B3B3" d="M56.836,38.406c0,0,6.417,0.241,8.367,0.283s15.644,0.594,15.644,0.594v0.373H56.836V38.406z"/>
<path fill="#B3B3B3" d="M73.258,19.99c-5.808-1.253-7.122-3.375-8.098-4.691c-0.976-1.317-8.324-12.058-8.324-12.058v2.424
	c0.29,0.379,6.58,8.613,8.346,10.886c1.989,2.56,5.108,3.141,8.076,3.778c2.967,0.636,7.591,1.525,7.591,1.525v-0.34
	C80.849,21.514,74.758,20.313,73.258,19.99z"/>
<path fill="#B3B3B3" d="M73.258,21.687c-4.771-0.934-6.698-2.44-8.098-4.266c-1.399-1.826-8.324-10.953-8.324-10.953v2.295
	c0.29,0.344,6.624,7.857,8.324,9.804c1.982,2.27,4.749,2.866,8.098,3.481c3.35,0.615,7.589,1.422,7.589,1.422v-0.34
	C80.847,23.13,76.008,22.226,73.258,21.687z"/>
<path fill="#B3B3B3" d="M73.258,23.449c-4.96-0.962-5.978-1.755-8.076-4.054c-1.32-1.446-8.062-9.406-8.346-9.742v2.121
	c0,0,6.3,6.718,8.324,8.703c2.657,2.604,5.151,2.802,8.098,3.333c2.947,0.53,7.589,1.379,7.589,1.379v-0.36
	C80.847,24.829,75.242,23.834,73.258,23.449z"/>
<polygon fill="#164194" points="51.549,39.656 51.549,16.498 16.929,16.498 16.929,39.656 51.549,39.656 "/>
<g>
	<polygon fill="#FFED00" points="34.614,19.79 35.819,19.79 34.848,20.546 35.226,21.746 34.259,21.007 33.291,21.746 
		33.673,20.546 32.694,19.79 33.895,19.79 34.259,18.62 34.614,19.79 	"/>
	<polygon fill="#FFED00" points="34.656,35.234 35.863,35.234 34.892,35.963 35.27,37.116 34.303,36.406 33.336,37.116 
		33.717,35.963 32.736,35.234 33.938,35.234 34.303,34.108 34.656,35.234 	"/>
	<polygon fill="#FFED00" points="38.478,34.211 39.684,34.211 38.713,34.938 39.09,36.094 38.123,35.381 37.156,36.094 
		37.537,34.938 36.557,34.211 37.76,34.211 38.123,33.085 38.478,34.211 	"/>
	<polygon fill="#FFED00" points="38.478,20.82 39.684,20.82 38.713,21.548 39.09,22.702 38.123,21.991 37.156,22.702 37.537,21.548 
		36.557,20.82 37.76,20.82 38.123,19.694 38.478,20.82 	"/>
	<polygon fill="#FFED00" points="41.313,23.657 42.518,23.657 41.547,24.383 41.925,25.539 40.957,24.828 39.992,25.539 
		40.373,24.383 39.393,23.657 40.593,23.657 40.957,22.531 41.313,23.657 	"/>
	<polygon fill="#FFED00" points="41.313,31.414 42.518,31.414 41.547,32.143 41.925,33.298 40.957,32.585 39.992,33.298 
		40.373,32.143 39.393,31.414 40.593,31.414 40.957,30.287 41.313,31.414 	"/>
	<polygon fill="#FFED00" points="42.376,27.476 43.583,27.476 42.612,28.204 42.989,29.358 42.021,28.646 41.055,29.358 
		41.436,28.204 40.456,27.476 41.656,27.476 42.021,26.351 42.376,27.476 	"/>
	<polygon fill="#FFED00" points="30.72,20.829 31.924,20.829 30.953,21.558 31.33,22.713 30.363,22.001 29.396,22.713 
		29.777,21.558 28.799,20.829 29.999,20.829 30.363,19.704 30.72,20.829 	"/>
	<polygon fill="#FFED00" points="27.962,23.666 29.169,23.666 28.197,24.394 28.573,25.548 27.607,24.836 26.641,25.548 
		27.021,24.394 26.041,23.666 27.244,23.666 27.607,22.54 27.962,23.666 	"/>
	<polygon fill="#FFED00" points="26.938,27.485 28.144,27.485 27.173,28.214 27.55,29.368 26.583,28.657 25.616,29.368 
		25.997,28.214 25.019,27.485 26.22,27.485 26.583,26.36 26.938,27.485 	"/>
	<polygon fill="#FFED00" points="27.962,31.423 29.169,31.423 28.197,32.152 28.573,33.308 27.607,32.595 26.641,33.308 
		27.021,32.152 26.041,31.423 27.244,31.423 27.607,30.299 27.962,31.423 	"/>
	<polygon fill="#FFED00" points="30.76,34.221 31.964,34.221 30.993,34.949 31.369,36.103 30.403,35.391 29.436,36.103 
		29.817,34.949 28.839,34.221 30.04,34.221 30.403,33.094 30.76,34.221 	"/>
</g>
</svg>
