<?xml version="1.0" encoding="utf-8"?>
<!-- Generator: Adobe Illustrator 16.0.0, SVG Export Plug-In . SVG Version: 6.00 Build 0)  -->
<!DOCTYPE svg PUBLIC "-//W3C//DTD SVG 1.1//EN" "http://www.w3.org/Graphics/SVG/1.1/DTD/svg11.dtd">
<svg version="1.1" id="Calque_1" xmlns="http://www.w3.org/2000/svg" xmlns:xlink="http://www.w3.org/1999/xlink" x="0px" y="0px"
	 width="145px" height="45.09px" viewBox="0 0 145 45.09" enable-background="new 0 0 145 45.09" xml:space="preserve">
<line fill="none" x1="-28.488" y1="467.073" x2="-28.488" y2="-260.667"/>
<line fill="none" x1="-28.488" y1="-260.667" x2="-28.488" y2="467.073"/>
<g>
	<g opacity="0.66">
		<g>
			<defs>
				<rect id="SVGID_1_" y="0" width="32.235" height="32.234"/>
			</defs>
			<clipPath id="SVGID_2_">
				<use xlink:href="#SVGID_1_"  overflow="visible"/>
			</clipPath>
			<rect clip-path="url(#SVGID_2_)" fill="#42C1CA" width="32.235" height="32.235"/>
		</g>
	</g>
	<g opacity="0.66">
		<g>
			<defs>
				<rect id="SVGID_3_" x="5.37" y="5.334" width="32.235" height="32.235"/>
			</defs>
			<clipPath id="SVGID_4_">
				<use xlink:href="#SVGID_3_"  overflow="visible"/>
			</clipPath>
			<rect x="5.37" y="5.334" clip-path="url(#SVGID_4_)" fill="#42C1CA" width="32.235" height="32.235"/>
		</g>
	</g>
	<rect x="10.744" y="10.749" fill="#42C1CA" width="32.234" height="32.192"/>
	<polygon fill="#FFFFFF" points="26.86,16.118 26.546,17.153 25.518,17.151 26.352,17.784 26.039,18.804 26.861,18.172 
		27.682,18.804 27.37,17.784 28.204,17.151 27.174,17.151 	"/>
	<polygon fill="#FFFFFF" points="31.606,17.401 31.291,18.437 30.263,18.434 31.096,19.066 30.783,20.088 31.606,19.456 
		32.427,20.088 32.115,19.066 32.949,18.434 31.92,18.434 	"/>
	<polygon fill="#FFFFFF" points="34.979,20.774 34.664,21.81 33.636,21.807 34.469,22.439 34.156,23.46 34.979,22.828 35.799,23.46 
		35.488,22.439 36.322,21.807 35.293,21.807 	"/>
	<polygon fill="#FFFFFF" points="36.262,25.519 35.948,26.554 34.919,26.552 35.752,27.184 35.44,28.206 36.263,27.574 
		37.083,28.206 36.771,27.184 37.605,26.552 36.576,26.552 	"/>
	<polygon fill="#FFFFFF" points="34.979,30.264 34.664,31.299 33.636,31.297 34.469,31.929 34.156,32.951 34.979,32.319 
		35.799,32.951 35.488,31.929 36.322,31.297 35.293,31.297 	"/>
	<polygon fill="#FFFFFF" points="31.606,33.637 31.291,34.672 30.263,34.67 31.096,35.302 30.783,36.323 31.606,35.691 
		32.427,36.323 32.115,35.302 32.949,34.67 31.92,34.67 	"/>
	<polygon fill="#FFFFFF" points="26.86,34.92 26.546,35.957 25.518,35.954 26.352,36.586 26.039,37.607 26.861,36.975 
		27.682,37.607 27.37,36.586 28.204,35.954 27.174,35.954 	"/>
	<polygon fill="#FFFFFF" points="22.115,33.637 21.801,34.672 20.773,34.67 21.605,35.302 21.294,36.323 22.116,35.691 
		22.937,36.323 22.625,35.302 23.458,34.67 22.429,34.67 	"/>
	<polygon fill="#FFFFFF" points="18.743,30.264 18.428,31.299 17.4,31.297 18.232,31.929 17.921,32.951 18.743,32.319 
		19.564,32.951 19.252,31.929 20.085,31.297 19.057,31.297 	"/>
	<polygon fill="#FFFFFF" points="17.459,25.519 17.145,26.554 16.117,26.552 16.949,27.184 16.637,28.206 17.46,27.574 
		18.28,28.206 17.969,27.184 18.803,26.552 17.773,26.552 	"/>
	<polygon fill="#FFFFFF" points="18.743,20.774 18.428,21.81 17.4,21.807 18.232,22.439 17.921,23.46 18.743,22.828 19.564,23.46 
		19.252,22.439 20.085,21.807 19.057,21.807 	"/>
	<polygon fill="#FFFFFF" points="22.115,17.401 21.801,18.437 20.773,18.434 21.605,19.066 21.294,20.088 22.116,19.456 
		22.937,20.088 22.625,19.066 23.458,18.434 22.429,18.434 	"/>
	<polygon fill="#FFFFFF" points="26.86,16.118 26.546,17.153 25.518,17.151 26.352,17.784 26.039,18.804 26.861,18.172 
		27.682,18.804 27.37,17.784 28.204,17.151 27.174,17.151 	"/>
	<path fill="#42C1CA" d="M58.668,21.336c0-0.245,0.117-0.367,0.35-0.367h1.395c0.232,0,0.35,0.123,0.35,0.367v11.478
		c0,0.232-0.117,0.35-0.35,0.35h-1.395c-0.233,0-0.35-0.117-0.35-0.35V21.336z"/>
	<path fill="#42C1CA" d="M63.957,33.163c-0.159,0-0.266-0.03-0.321-0.092c-0.055-0.061-0.082-0.146-0.082-0.257V21.336
		c0-0.232,0.116-0.348,0.349-0.348h3.728c1.016,0,1.855,0.162,2.517,0.487c0.661,0.324,1.184,0.762,1.569,1.312
		c0.387,0.551,0.656,1.194,0.809,1.928c0.152,0.734,0.229,1.513,0.229,2.333c0,0.832-0.073,1.618-0.22,2.36
		c-0.147,0.74-0.411,1.389-0.79,1.945c-0.379,0.558-0.903,0.999-1.569,1.322c-0.668,0.325-1.516,0.486-2.544,0.486H63.957z
		 M70.587,27.185c0-0.858-0.077-1.573-0.23-2.143c-0.153-0.571-0.364-1.022-0.633-1.354s-0.591-0.564-0.964-0.699
		c-0.374-0.136-0.781-0.203-1.222-0.203h-1.911v8.576h1.782c0.416,0,0.813-0.054,1.193-0.164c0.38-0.111,0.716-0.319,1.01-0.626
		c0.295-0.307,0.529-0.733,0.707-1.279C70.498,28.747,70.587,28.044,70.587,27.185"/>
	<g opacity="0.5">
		<g>
			<defs>
				<rect id="SVGID_5_" x="48.351" y="23.538" width="7.844" height="9.348"/>
			</defs>
			<clipPath id="SVGID_6_">
				<use xlink:href="#SVGID_5_"  overflow="visible"/>
			</clipPath>
			<path clip-path="url(#SVGID_6_)" fill="#42C1CA" d="M50.426,28.771c0.013,0.466,0.065,0.852,0.157,1.156
				c0.091,0.308,0.23,0.548,0.414,0.727c0.183,0.177,0.41,0.303,0.679,0.376c0.27,0.073,0.594,0.11,0.974,0.11
				c0.331,0,0.722-0.023,1.175-0.073c0.453-0.049,0.857-0.092,1.212-0.129c0.171-0.024,0.292-0.021,0.358,0.009
				c0.066,0.031,0.113,0.133,0.138,0.304l0.11,0.605c0.024,0.135,0.021,0.245-0.01,0.33c-0.03,0.086-0.131,0.166-0.303,0.24
				c-0.183,0.072-0.397,0.137-0.642,0.192c-0.245,0.055-0.502,0.102-0.772,0.137c-0.269,0.037-0.539,0.068-0.808,0.093
				s-0.514,0.037-0.734,0.037c-0.882,0-1.586-0.13-2.112-0.387c-0.526-0.257-0.93-0.599-1.21-1.027
				c-0.283-0.429-0.47-0.922-0.561-1.479c-0.092-0.557-0.138-1.135-0.138-1.735c0-0.44,0.037-0.936,0.11-1.487
				c0.073-0.551,0.242-1.064,0.505-1.542c0.263-0.478,0.654-0.879,1.175-1.204c0.52-0.323,1.227-0.485,2.121-0.485
				c0.82,0,1.484,0.122,1.993,0.367c0.508,0.245,0.902,0.56,1.184,0.946c0.282,0.385,0.475,0.825,0.579,1.321
				c0.104,0.496,0.163,0.988,0.175,1.479c0.012,0.33-0.043,0.601-0.165,0.809c-0.123,0.208-0.368,0.312-0.735,0.312H50.426z
				 M52.263,25.208c-0.342,0-0.624,0.049-0.845,0.146c-0.22,0.097-0.401,0.239-0.542,0.426c-0.141,0.188-0.242,0.42-0.303,0.692
				c-0.062,0.274-0.104,0.581-0.128,0.92h3.636c0-0.278-0.024-0.548-0.074-0.81c-0.048-0.262-0.138-0.495-0.265-0.701
				c-0.129-0.207-0.313-0.37-0.551-0.492C52.952,25.27,52.642,25.208,52.263,25.208"/>
		</g>
	</g>
	<path fill="#42C1CA" d="M50.617,37.026c0.103,0,0.23,0.005,0.381,0.013c0.151,0.008,0.306,0.022,0.465,0.042
		s0.314,0.046,0.464,0.077c0.151,0.032,0.287,0.071,0.406,0.12c0.063,0.022,0.097,0.056,0.101,0.095
		c0.003,0.04,0.006,0.076,0.006,0.107l-0.047,0.203c-0.008,0.04-0.032,0.063-0.072,0.071c-0.041,0.008-0.088,0.008-0.144,0
		c-0.103-0.008-0.221-0.021-0.351-0.036c-0.131-0.016-0.269-0.03-0.412-0.042c-0.144-0.012-0.284-0.022-0.424-0.029
		c-0.139-0.008-0.268-0.013-0.387-0.013c-0.31,0-0.566,0.038-0.769,0.114c-0.203,0.075-0.362,0.204-0.477,0.388
		s-0.194,0.427-0.239,0.729c-0.042,0.303-0.065,0.682-0.065,1.136c0,0.47,0.024,0.861,0.072,1.177
		c0.048,0.314,0.129,0.566,0.244,0.754c0.115,0.187,0.271,0.32,0.471,0.4c0.198,0.079,0.453,0.119,0.763,0.119
		c0.079,0,0.187-0.005,0.322-0.012c0.135-0.009,0.281-0.019,0.436-0.03s0.31-0.024,0.465-0.036s0.295-0.025,0.423-0.041
		c0.095,0,0.147,0.035,0.155,0.107l0.036,0.152c0.008,0.038,0.003,0.075-0.012,0.11s-0.056,0.068-0.119,0.1
		c-0.191,0.077-0.446,0.136-0.763,0.176c-0.318,0.038-0.628,0.059-0.93,0.059c-0.494,0-0.888-0.077-1.187-0.228
		c-0.298-0.15-0.527-0.362-0.686-0.632c-0.159-0.271-0.265-0.591-0.316-0.96c-0.052-0.37-0.078-0.772-0.078-1.21
		c0-0.39,0.025-0.765,0.078-1.127c0.051-0.361,0.157-0.679,0.316-0.954c0.159-0.273,0.388-0.492,0.686-0.654
		C49.729,37.108,50.123,37.026,50.617,37.026"/>
	<path fill="#42C1CA" d="M55.552,43.047c-0.548,0-0.978-0.091-1.288-0.274c-0.311-0.183-0.543-0.423-0.697-0.722
		c-0.156-0.298-0.251-0.63-0.287-0.995s-0.054-0.735-0.054-1.109c0-0.302,0.022-0.623,0.065-0.965
		c0.044-0.342,0.148-0.657,0.311-0.948c0.163-0.29,0.397-0.53,0.703-0.722c0.306-0.19,0.721-0.285,1.246-0.285
		c0.532,0,0.957,0.081,1.276,0.244c0.317,0.163,0.56,0.382,0.726,0.655c0.167,0.274,0.276,0.587,0.328,0.937
		c0.052,0.35,0.078,0.711,0.078,1.084c0,0.366-0.02,0.734-0.06,1.104c-0.04,0.369-0.139,0.702-0.298,0.996
		c-0.159,0.294-0.399,0.535-0.721,0.721C56.559,42.954,56.116,43.047,55.552,43.047 M55.552,37.612c-0.35,0-0.633,0.053-0.847,0.161
		c-0.214,0.106-0.381,0.267-0.501,0.478c-0.119,0.211-0.201,0.466-0.244,0.765c-0.044,0.299-0.065,0.64-0.065,1.021
		c0,0.383,0.021,0.724,0.065,1.022c0.043,0.299,0.125,0.553,0.244,0.765c0.12,0.211,0.287,0.371,0.501,0.478
		c0.214,0.108,0.497,0.162,0.847,0.162c0.357,0,0.65-0.052,0.876-0.156c0.227-0.103,0.403-0.258,0.531-0.465
		c0.127-0.207,0.213-0.46,0.262-0.76c0.048-0.299,0.071-0.647,0.071-1.046c0-0.391-0.021-0.734-0.065-1.033
		c-0.044-0.299-0.13-0.553-0.257-0.759c-0.127-0.208-0.304-0.365-0.53-0.472C56.214,37.665,55.917,37.612,55.552,37.612"/>
	<path fill="#42C1CA" d="M62.914,38.469c-0.029-0.215-0.079-0.385-0.155-0.513c-0.076-0.127-0.185-0.217-0.328-0.269
		c-0.143-0.051-0.33-0.076-0.56-0.076c-0.159,0-0.344,0.029-0.555,0.089c-0.21,0.06-0.419,0.131-0.625,0.215
		c-0.207,0.083-0.396,0.167-0.566,0.249c-0.171,0.084-0.301,0.15-0.387,0.197v4.412c0,0.118-0.056,0.178-0.167,0.178h-0.31
		c-0.064,0-0.106-0.012-0.126-0.035c-0.02-0.024-0.03-0.071-0.03-0.143v-5.449c0-0.071,0.01-0.119,0.03-0.143
		c0.02-0.023,0.062-0.036,0.126-0.036h0.31c0.063,0,0.107,0.01,0.13,0.03c0.024,0.02,0.037,0.07,0.037,0.148l0.001,0.525
		c0.08-0.056,0.197-0.13,0.352-0.221c0.156-0.092,0.335-0.181,0.538-0.27c0.203-0.087,0.421-0.164,0.652-0.231
		c0.231-0.067,0.462-0.103,0.693-0.103c0.367,0,0.658,0.051,0.873,0.15c0.215,0.099,0.381,0.242,0.497,0.428
		c0.116,0.188,0.19,0.412,0.226,0.675c0.037,0.262,0.055,0.556,0.055,0.882v3.613c0,0.118-0.061,0.178-0.182,0.178h-0.328
		c-0.065,0-0.107-0.012-0.128-0.035c-0.02-0.024-0.03-0.071-0.03-0.143v-3.481C62.956,38.958,62.942,38.684,62.914,38.469"/>
	<path fill="#42C1CA" d="M68.625,38.469c-0.028-0.215-0.079-0.385-0.155-0.513c-0.076-0.127-0.185-0.217-0.328-0.269
		c-0.143-0.051-0.33-0.076-0.56-0.076c-0.159,0-0.344,0.029-0.554,0.089s-0.419,0.131-0.626,0.215
		c-0.207,0.083-0.396,0.167-0.566,0.249c-0.171,0.084-0.3,0.15-0.387,0.197v4.412c0,0.118-0.056,0.178-0.167,0.178H64.97
		c-0.063,0-0.105-0.012-0.125-0.035c-0.02-0.024-0.03-0.071-0.03-0.143v-5.449c0-0.071,0.01-0.119,0.03-0.143
		c0.019-0.023,0.061-0.036,0.125-0.036h0.311c0.063,0,0.107,0.01,0.131,0.03c0.023,0.02,0.036,0.07,0.036,0.148l0.001,0.525
		c0.08-0.056,0.197-0.13,0.353-0.221c0.155-0.092,0.335-0.181,0.539-0.27c0.203-0.087,0.419-0.164,0.65-0.231
		c0.232-0.067,0.463-0.103,0.693-0.103c0.367,0,0.658,0.051,0.873,0.15c0.216,0.099,0.381,0.242,0.497,0.428
		c0.116,0.188,0.191,0.412,0.227,0.675c0.036,0.262,0.054,0.556,0.054,0.882v3.613c0,0.118-0.061,0.178-0.183,0.178h-0.328
		c-0.065,0-0.107-0.012-0.127-0.035c-0.021-0.024-0.03-0.071-0.03-0.143v-3.481C68.667,38.958,68.652,38.684,68.625,38.469"/>
	<path fill="#42C1CA" d="M72.815,37.027c0.501,0,0.903,0.076,1.21,0.227c0.306,0.151,0.547,0.348,0.721,0.59
		c0.175,0.242,0.293,0.521,0.353,0.835s0.09,0.634,0.09,0.959c0,0.184-0.034,0.327-0.103,0.43c-0.066,0.103-0.196,0.155-0.387,0.155
		h-3.542c0.017,0.397,0.046,0.737,0.091,1.02c0.042,0.282,0.123,0.511,0.238,0.686c0.115,0.175,0.277,0.302,0.489,0.382
		c0.21,0.079,0.49,0.118,0.84,0.118c0.118,0,0.262-0.005,0.429-0.018c0.168-0.013,0.338-0.027,0.513-0.048
		c0.176-0.02,0.344-0.037,0.507-0.053c0.163-0.017,0.295-0.028,0.399-0.036c0.079-0.009,0.131,0.022,0.155,0.094l0.035,0.191
		c0.025,0.088-0.02,0.155-0.131,0.203c-0.096,0.032-0.223,0.065-0.381,0.101c-0.16,0.036-0.331,0.068-0.514,0.096
		c-0.183,0.028-0.367,0.05-0.555,0.066c-0.187,0.016-0.355,0.023-0.506,0.023c-0.532,0-0.952-0.083-1.258-0.251
		c-0.306-0.167-0.537-0.389-0.692-0.667c-0.154-0.279-0.252-0.602-0.292-0.973c-0.039-0.368-0.059-0.752-0.059-1.149
		c0-0.341,0.02-0.689,0.059-1.043c0.04-0.354,0.138-0.674,0.292-0.961c0.155-0.285,0.389-0.52,0.704-0.702
		C71.836,37.118,72.267,37.027,72.815,37.027 M72.815,37.612c-0.366,0-0.654,0.045-0.865,0.138c-0.21,0.092-0.374,0.226-0.489,0.401
		c-0.114,0.176-0.19,0.392-0.227,0.647c-0.035,0.256-0.061,0.548-0.078,0.875h3.34c-0.009-0.248-0.028-0.495-0.061-0.743
		c-0.031-0.248-0.105-0.47-0.221-0.665c-0.115-0.197-0.282-0.354-0.5-0.474C73.497,37.671,73.197,37.612,72.815,37.612"/>
	<path fill="#42C1CA" d="M78.467,37.026c0.103,0,0.23,0.005,0.381,0.013c0.151,0.008,0.306,0.022,0.465,0.042
		s0.313,0.046,0.465,0.077c0.151,0.032,0.286,0.071,0.405,0.12c0.064,0.022,0.098,0.056,0.102,0.095
		c0.005,0.04,0.007,0.076,0.007,0.107l-0.048,0.203c-0.008,0.04-0.033,0.063-0.072,0.071c-0.04,0.008-0.088,0.008-0.143,0
		c-0.103-0.008-0.222-0.021-0.352-0.036c-0.132-0.016-0.269-0.03-0.412-0.042c-0.143-0.012-0.284-0.022-0.423-0.029
		c-0.14-0.008-0.269-0.013-0.387-0.013c-0.312,0-0.567,0.038-0.77,0.114c-0.203,0.075-0.362,0.204-0.478,0.388
		s-0.194,0.427-0.238,0.729s-0.065,0.682-0.065,1.136c0,0.47,0.024,0.861,0.072,1.177c0.047,0.314,0.129,0.566,0.244,0.754
		c0.114,0.187,0.271,0.32,0.471,0.4c0.198,0.079,0.452,0.119,0.764,0.119c0.078,0,0.186-0.005,0.321-0.012
		c0.135-0.009,0.28-0.019,0.435-0.03c0.156-0.012,0.311-0.024,0.466-0.036c0.153-0.012,0.296-0.025,0.423-0.041
		c0.095,0,0.147,0.035,0.154,0.107l0.037,0.152c0.007,0.038,0.003,0.075-0.013,0.11c-0.017,0.035-0.056,0.068-0.119,0.1
		c-0.19,0.077-0.445,0.136-0.763,0.176c-0.318,0.038-0.628,0.059-0.93,0.059c-0.493,0-0.889-0.077-1.187-0.228
		c-0.299-0.15-0.526-0.362-0.686-0.632c-0.159-0.271-0.265-0.591-0.316-0.96c-0.052-0.37-0.077-0.772-0.077-1.21
		c0-0.39,0.025-0.765,0.077-1.127c0.052-0.361,0.157-0.679,0.316-0.954c0.159-0.273,0.387-0.492,0.686-0.654
		C77.578,37.108,77.974,37.026,78.467,37.026"/>
	<path fill="#42C1CA" d="M84.165,42.69c0.008,0.048,0.004,0.083-0.012,0.106c-0.018,0.024-0.04,0.044-0.071,0.061
		c-0.056,0.023-0.132,0.048-0.228,0.071c-0.095,0.023-0.198,0.045-0.31,0.065c-0.111,0.02-0.227,0.034-0.346,0.042
		s-0.231,0.012-0.334,0.012c-0.447,0-0.75-0.101-0.908-0.305c-0.157-0.201-0.236-0.494-0.236-0.876v-4.184h-0.691
		c-0.095,0-0.143-0.045-0.143-0.132v-0.263c0-0.096,0.048-0.143,0.143-0.143h0.703v-1.323c0-0.088,0.045-0.143,0.134-0.168
		l0.353-0.106c0.073-0.023,0.119-0.023,0.14,0c0.02,0.024,0.03,0.067,0.03,0.132v1.466H83.7c0.063,0,0.102,0.01,0.112,0.029
		c0.014,0.021,0.019,0.055,0.019,0.103v0.273c0,0.047-0.005,0.082-0.019,0.102c-0.011,0.02-0.049,0.03-0.112,0.03h-1.312v3.98
		c0,0.137,0.008,0.251,0.023,0.347s0.051,0.175,0.107,0.238c0.056,0.063,0.138,0.111,0.244,0.143
		c0.108,0.032,0.249,0.048,0.424,0.048c0.04,0,0.093-0.001,0.161-0.005c0.067-0.004,0.139-0.009,0.215-0.013
		c0.075-0.004,0.146-0.007,0.215-0.012c0.066-0.004,0.124-0.01,0.172-0.019c0.063-0.007,0.105-0.003,0.125,0.013
		c0.02,0.017,0.038,0.048,0.055,0.095L84.165,42.69z"/>
	<path fill="#42C1CA" d="M85.869,35.715c0,0.119-0.023,0.223-0.071,0.311c-0.047,0.087-0.159,0.131-0.334,0.131
		c-0.183,0-0.296-0.044-0.34-0.131c-0.043-0.088-0.065-0.191-0.065-0.311s0.025-0.219,0.078-0.299
		c0.051-0.078,0.161-0.118,0.327-0.118c0.167,0,0.276,0.037,0.328,0.112C85.844,35.487,85.869,35.588,85.869,35.715 M85.142,37.325
		c0-0.071,0.014-0.119,0.043-0.143c0.026-0.024,0.072-0.036,0.137-0.036h0.298c0.063,0,0.105,0.012,0.125,0.036
		c0.02,0.023,0.03,0.071,0.03,0.143v5.448c0,0.072-0.011,0.119-0.03,0.144c-0.02,0.023-0.063,0.035-0.125,0.035h-0.298
		c-0.064,0-0.11-0.012-0.137-0.035c-0.029-0.024-0.043-0.071-0.043-0.144V37.325z"/>
	<path fill="#42C1CA" d="M91.121,38.469c-0.027-0.215-0.079-0.385-0.154-0.513c-0.076-0.127-0.186-0.217-0.328-0.269
		c-0.143-0.051-0.33-0.076-0.561-0.076c-0.159,0-0.344,0.029-0.554,0.089c-0.211,0.06-0.42,0.131-0.627,0.215
		c-0.206,0.083-0.396,0.167-0.565,0.249c-0.172,0.084-0.301,0.15-0.389,0.197v4.412c0,0.118-0.056,0.178-0.166,0.178h-0.311
		c-0.063,0-0.105-0.012-0.125-0.035c-0.02-0.024-0.029-0.071-0.029-0.143v-5.449c0-0.071,0.01-0.119,0.029-0.143
		s0.062-0.036,0.125-0.036h0.311c0.063,0,0.107,0.01,0.131,0.03c0.024,0.02,0.035,0.07,0.035,0.148l0.003,0.525
		c0.079-0.056,0.197-0.13,0.352-0.221c0.155-0.092,0.335-0.181,0.538-0.27c0.203-0.087,0.421-0.164,0.651-0.231
		c0.231-0.067,0.463-0.103,0.693-0.103c0.366,0,0.658,0.051,0.873,0.15c0.216,0.099,0.38,0.242,0.496,0.428
		c0.115,0.188,0.19,0.412,0.227,0.675c0.036,0.262,0.055,0.556,0.055,0.882v3.613c0,0.118-0.062,0.178-0.183,0.178h-0.327
		c-0.065,0-0.108-0.012-0.128-0.035c-0.021-0.024-0.03-0.071-0.03-0.143v-3.481C91.163,38.958,91.149,38.684,91.121,38.469"/>
	<path fill="#42C1CA" d="M97.661,43.083c0,0.286-0.021,0.557-0.061,0.811s-0.129,0.475-0.269,0.662
		c-0.139,0.186-0.344,0.334-0.613,0.44c-0.271,0.107-0.641,0.161-1.109,0.161c-0.15,0-0.313-0.005-0.488-0.013
		c-0.175-0.007-0.351-0.021-0.524-0.041c-0.175-0.021-0.342-0.046-0.501-0.077c-0.159-0.032-0.298-0.071-0.417-0.12
		c-0.088-0.031-0.133-0.066-0.138-0.106c-0.003-0.04,0.002-0.076,0.019-0.107l0.035-0.167c0.007-0.071,0.071-0.096,0.191-0.071
		c0.277,0.04,0.578,0.065,0.899,0.077c0.322,0.012,0.603,0.018,0.841,0.018c0.326,0,0.588-0.025,0.787-0.077
		c0.198-0.052,0.349-0.132,0.453-0.238c0.103-0.107,0.169-0.244,0.196-0.411c0.028-0.167,0.041-0.362,0.041-0.584l-0.011-0.549
		l-0.024-0.023c-0.413,0.166-0.751,0.273-1.014,0.321c-0.262,0.048-0.513,0.071-0.751,0.071c-0.445,0-0.811-0.067-1.097-0.202
		c-0.286-0.136-0.513-0.33-0.68-0.584c-0.166-0.255-0.284-0.569-0.352-0.942s-0.102-0.794-0.102-1.264
		c0-0.501,0.038-0.939,0.113-1.317c0.076-0.378,0.203-0.696,0.382-0.954c0.18-0.258,0.413-0.451,0.704-0.578
		c0.29-0.127,0.649-0.191,1.077-0.191c0.51,0,0.925,0.027,1.247,0.079c0.322,0.051,0.609,0.108,0.864,0.173
		c0.15,0.04,0.24,0.097,0.268,0.172c0.028,0.076,0.042,0.157,0.042,0.244L97.661,43.083z M96.993,37.802
		c-0.199-0.04-0.445-0.076-0.739-0.108c-0.295-0.031-0.616-0.047-0.966-0.047c-0.23,0-0.445,0.025-0.644,0.077
		c-0.199,0.052-0.37,0.157-0.513,0.316c-0.144,0.159-0.255,0.392-0.334,0.697s-0.119,0.714-0.119,1.223
		c0,0.46,0.021,0.85,0.065,1.167c0.043,0.318,0.123,0.576,0.238,0.775s0.268,0.345,0.459,0.436c0.19,0.092,0.434,0.137,0.728,0.137
		c0.23,0,0.505-0.028,0.822-0.083c0.318-0.057,0.651-0.136,1.002-0.239V37.802z"/>
	<path fill="#42C1CA" d="M104.122,37.027c0.501,0,0.904,0.076,1.21,0.227c0.307,0.151,0.546,0.348,0.722,0.59
		c0.174,0.242,0.292,0.521,0.352,0.835s0.089,0.634,0.089,0.959c0,0.184-0.033,0.327-0.101,0.43s-0.197,0.155-0.389,0.155h-3.54
		c0.016,0.397,0.046,0.737,0.09,1.02c0.043,0.282,0.123,0.511,0.238,0.686s0.277,0.302,0.489,0.382
		c0.21,0.079,0.489,0.118,0.84,0.118c0.119,0,0.262-0.005,0.429-0.018s0.339-0.027,0.514-0.048c0.174-0.02,0.344-0.037,0.506-0.053
		c0.163-0.017,0.296-0.028,0.399-0.036c0.079-0.009,0.132,0.022,0.155,0.094l0.035,0.191c0.024,0.088-0.02,0.155-0.13,0.203
		c-0.097,0.032-0.223,0.065-0.382,0.101c-0.159,0.036-0.33,0.068-0.513,0.096c-0.183,0.028-0.368,0.05-0.555,0.066
		c-0.188,0.016-0.356,0.023-0.507,0.023c-0.533,0-0.951-0.083-1.258-0.251c-0.306-0.167-0.537-0.389-0.691-0.667
		c-0.155-0.279-0.252-0.602-0.292-0.973c-0.04-0.368-0.06-0.752-0.06-1.149c0-0.341,0.02-0.689,0.06-1.043
		c0.04-0.354,0.137-0.674,0.292-0.961c0.154-0.285,0.389-0.52,0.704-0.702C103.143,37.118,103.573,37.027,104.122,37.027
		 M104.122,37.612c-0.366,0-0.654,0.045-0.864,0.138c-0.211,0.092-0.374,0.226-0.489,0.401s-0.19,0.392-0.227,0.647
		c-0.035,0.256-0.062,0.548-0.077,0.875h3.338c-0.008-0.248-0.027-0.495-0.06-0.743c-0.031-0.248-0.104-0.47-0.221-0.665
		c-0.114-0.197-0.282-0.354-0.501-0.474C104.804,37.671,104.504,37.612,104.122,37.612"/>
	<path fill="#42C1CA" d="M108.337,41.619c0.026,0.214,0.082,0.385,0.165,0.512c0.084,0.127,0.198,0.216,0.345,0.267
		c0.146,0.053,0.335,0.078,0.564,0.078c0.158,0,0.343-0.029,0.552-0.09c0.211-0.059,0.418-0.13,0.625-0.214
		c0.205-0.083,0.394-0.167,0.563-0.249c0.17-0.083,0.299-0.148,0.387-0.196v-4.401c0-0.118,0.056-0.179,0.167-0.179h0.31
		c0.063,0,0.105,0.012,0.125,0.036s0.029,0.071,0.029,0.143v5.448c0,0.072-0.01,0.119-0.029,0.144
		c-0.02,0.023-0.062,0.035-0.125,0.035h-0.31c-0.063,0-0.11-0.012-0.138-0.035c-0.028-0.024-0.042-0.071-0.042-0.144v-0.536
		c-0.08,0.056-0.194,0.129-0.346,0.221c-0.15,0.091-0.327,0.183-0.53,0.274c-0.202,0.091-0.419,0.168-0.65,0.232
		c-0.229,0.063-0.46,0.095-0.69,0.095c-0.366,0-0.658-0.05-0.877-0.148c-0.219-0.1-0.388-0.241-0.507-0.424
		s-0.198-0.406-0.238-0.674c-0.04-0.265-0.06-0.562-0.06-0.888v-3.601c0-0.118,0.061-0.179,0.183-0.179h0.327
		c0.064,0,0.107,0.012,0.128,0.036c0.02,0.024,0.03,0.071,0.03,0.143v3.473C108.295,41.131,108.308,41.405,108.337,41.619"/>
	<path fill="#42C1CA" d="M115.901,37.742c-0.159,0.032-0.316,0.076-0.471,0.132c-0.155,0.056-0.305,0.113-0.448,0.172
		c-0.143,0.06-0.271,0.118-0.387,0.174s-0.204,0.1-0.268,0.131v4.424c0,0.118-0.062,0.178-0.183,0.178h-0.328
		c-0.064,0-0.107-0.012-0.127-0.035c-0.021-0.024-0.031-0.071-0.031-0.143v-5.448c0-0.119,0.054-0.18,0.158-0.18h0.316
		c0.064,0,0.111,0.013,0.14,0.036c0.027,0.024,0.042,0.071,0.042,0.144v0.524c0.056-0.04,0.139-0.096,0.251-0.167
		c0.111-0.071,0.236-0.144,0.375-0.215c0.14-0.071,0.285-0.143,0.441-0.215c0.155-0.071,0.312-0.127,0.471-0.167
		c0.04-0.016,0.065-0.016,0.077,0c0.013,0.016,0.021,0.044,0.03,0.083l0.048,0.406C116.016,37.663,115.98,37.718,115.901,37.742"/>
	<path fill="#42C1CA" d="M119.001,43.047c-0.549,0-0.979-0.091-1.288-0.274c-0.311-0.183-0.543-0.423-0.697-0.722
		c-0.155-0.298-0.251-0.63-0.286-0.995c-0.036-0.365-0.055-0.735-0.055-1.109c0-0.302,0.022-0.623,0.066-0.965
		s0.147-0.657,0.311-0.948c0.163-0.29,0.396-0.53,0.703-0.722c0.306-0.19,0.721-0.285,1.246-0.285c0.532,0,0.957,0.081,1.275,0.244
		c0.317,0.163,0.561,0.382,0.728,0.655c0.167,0.274,0.275,0.587,0.328,0.937c0.051,0.35,0.077,0.711,0.077,1.084
		c0,0.366-0.021,0.734-0.061,1.104c-0.04,0.369-0.138,0.702-0.297,0.996s-0.399,0.535-0.722,0.721
		C120.008,42.954,119.564,43.047,119.001,43.047 M119.001,37.612c-0.351,0-0.633,0.053-0.847,0.161
		c-0.214,0.106-0.382,0.267-0.501,0.478s-0.2,0.466-0.245,0.765c-0.042,0.299-0.065,0.64-0.065,1.021
		c0,0.383,0.023,0.724,0.065,1.022c0.045,0.299,0.126,0.553,0.245,0.765c0.119,0.211,0.287,0.371,0.501,0.478
		c0.214,0.108,0.496,0.162,0.847,0.162c0.357,0,0.649-0.052,0.876-0.156c0.227-0.103,0.402-0.258,0.531-0.465
		c0.127-0.207,0.213-0.46,0.262-0.76c0.048-0.299,0.071-0.647,0.071-1.046c0-0.391-0.022-0.734-0.065-1.033
		c-0.044-0.299-0.13-0.553-0.257-0.759c-0.127-0.208-0.304-0.365-0.53-0.472C119.662,37.665,119.366,37.612,119.001,37.612"/>
	<path fill="#42C1CA" d="M123.341,44.861c0,0.079-0.015,0.13-0.043,0.154c-0.027,0.023-0.075,0.035-0.139,0.035h-0.328
		c-0.106,0-0.158-0.063-0.158-0.19v-7.535c0-0.118,0.052-0.179,0.158-0.179h0.328c0.063,0,0.111,0.012,0.139,0.036
		c0.028,0.024,0.043,0.071,0.043,0.143l-0.012,0.525c0.079-0.056,0.196-0.13,0.352-0.222c0.154-0.091,0.331-0.181,0.53-0.269
		c0.198-0.087,0.411-0.164,0.638-0.232c0.227-0.066,0.455-0.101,0.686-0.101c0.35,0,0.642,0.06,0.877,0.18
		c0.233,0.118,0.421,0.299,0.56,0.542c0.139,0.242,0.237,0.546,0.293,0.911c0.055,0.366,0.083,0.791,0.083,1.276
		c0,0.508-0.034,0.958-0.102,1.347c-0.068,0.39-0.184,0.716-0.351,0.979c-0.166,0.262-0.394,0.458-0.684,0.59
		c-0.289,0.131-0.651,0.196-1.087,0.196c-0.23,0-0.494-0.025-0.791-0.075c-0.298-0.052-0.624-0.154-0.98-0.312l-0.012,0.024V44.861z
		 M123.341,42.153c0.356,0.111,0.683,0.191,0.979,0.239c0.297,0.047,0.588,0.071,0.873,0.071c0.293,0,0.533-0.044,0.72-0.132
		c0.186-0.087,0.334-0.229,0.444-0.424c0.111-0.195,0.188-0.457,0.232-0.783c0.043-0.327,0.064-0.729,0.064-1.207
		c0-0.471-0.02-0.854-0.06-1.153c-0.039-0.298-0.104-0.533-0.195-0.705c-0.091-0.171-0.214-0.289-0.368-0.353
		s-0.346-0.095-0.576-0.095c-0.166,0-0.351,0.029-0.553,0.09c-0.202,0.06-0.402,0.129-0.6,0.208
		c-0.198,0.08-0.382,0.162-0.553,0.245c-0.17,0.084-0.307,0.153-0.409,0.209V42.153z"/>
	<path fill="#42C1CA" d="M130.779,37.027c0.501,0,0.904,0.076,1.211,0.227c0.306,0.151,0.546,0.348,0.721,0.59
		c0.174,0.242,0.293,0.521,0.352,0.835c0.061,0.313,0.09,0.634,0.09,0.959c0,0.184-0.034,0.327-0.101,0.43
		c-0.068,0.103-0.197,0.155-0.389,0.155h-3.541c0.017,0.397,0.046,0.737,0.09,1.02s0.124,0.511,0.238,0.686
		c0.115,0.175,0.278,0.302,0.489,0.382c0.21,0.079,0.49,0.118,0.84,0.118c0.119,0,0.263-0.005,0.43-0.018
		c0.166-0.013,0.338-0.027,0.513-0.048c0.176-0.02,0.344-0.037,0.507-0.053c0.163-0.017,0.296-0.028,0.399-0.036
		c0.079-0.009,0.131,0.022,0.155,0.094l0.035,0.191c0.023,0.088-0.02,0.155-0.131,0.203c-0.096,0.032-0.223,0.065-0.382,0.101
		c-0.159,0.036-0.329,0.068-0.512,0.096c-0.184,0.028-0.368,0.05-0.556,0.066c-0.187,0.016-0.355,0.023-0.506,0.023
		c-0.532,0-0.952-0.083-1.258-0.251c-0.307-0.167-0.537-0.389-0.691-0.667c-0.155-0.279-0.253-0.602-0.293-0.973
		c-0.039-0.368-0.059-0.752-0.059-1.149c0-0.341,0.02-0.689,0.059-1.043c0.04-0.354,0.138-0.674,0.293-0.961
		c0.154-0.285,0.39-0.52,0.703-0.702C129.8,37.118,130.231,37.027,130.779,37.027 M130.779,37.612c-0.365,0-0.653,0.045-0.864,0.138
		c-0.21,0.092-0.374,0.226-0.488,0.401c-0.115,0.176-0.19,0.392-0.228,0.647c-0.035,0.256-0.061,0.548-0.077,0.875h3.339
		c-0.008-0.248-0.028-0.495-0.061-0.743c-0.031-0.248-0.104-0.47-0.22-0.665c-0.115-0.197-0.282-0.354-0.501-0.474
		C131.461,37.671,131.161,37.612,130.779,37.612"/>
</g>
</svg>
