<?xml version="1.0" encoding="utf-8"?>
<!-- Generator: Adobe Illustrator 16.0.0, SVG Export Plug-In . SVG Version: 6.00 Build 0)  -->
<!DOCTYPE svg PUBLIC "-//W3C//DTD SVG 1.1//EN" "http://www.w3.org/Graphics/SVG/1.1/DTD/svg11.dtd">
<svg version="1.1" id="Calque_1" xmlns="http://www.w3.org/2000/svg" xmlns:xlink="http://www.w3.org/1999/xlink" x="0px" y="0px"
	 width="174px" height="60.712px" viewBox="0 0 174 60.712" enable-background="new 0 0 174 60.712" xml:space="preserve">
<line fill="none" x1="-35.682" y1="602.503" x2="-35.682" y2="-334.099"/>
<line fill="none" x1="-35.682" y1="-334.099" x2="-35.682" y2="602.503"/>
<g>
	<g opacity="0.66">
		<g>
			<g>
				<defs>
					<rect id="SVGID_1_" x="0.981" y="1.38" width="41.486" height="41.486"/>
				</defs>
				<clipPath id="SVGID_2_">
					<use xlink:href="#SVGID_1_"  overflow="visible"/>
				</clipPath>
				<rect x="0.981" y="1.38" clip-path="url(#SVGID_2_)" fill="#42C1CA" width="41.486" height="41.486"/>
			</g>
		</g>
	</g>
	<g opacity="0.66">
		<g>
			<g>
				<defs>
					<rect id="SVGID_3_" x="7.892" y="8.245" width="41.486" height="41.485"/>
				</defs>
				<clipPath id="SVGID_4_">
					<use xlink:href="#SVGID_3_"  overflow="visible"/>
				</clipPath>
				<rect x="7.892" y="8.245" clip-path="url(#SVGID_4_)" fill="#42C1CA" width="41.486" height="41.485"/>
			</g>
		</g>
	</g>
	<rect x="14.809" y="15.215" fill="#42C1CA" width="41.484" height="41.432"/>
	<polygon fill="#FFFFFF" points="35.549,22.124 35.145,23.456 33.823,23.453 34.896,24.269 34.493,25.581 35.551,24.768 
		36.608,25.581 36.207,24.269 37.28,23.453 35.954,23.453 	"/>
	<polygon fill="#FFFFFF" points="41.658,23.775 41.252,25.108 39.93,25.105 41.001,25.919 40.599,27.233 41.658,26.42 
		42.714,27.233 42.313,25.919 43.386,25.105 42.062,25.105 	"/>
	<polygon fill="#FFFFFF" points="46,28.116 45.593,29.45 44.271,29.446 45.342,30.26 44.939,31.573 46,30.76 47.054,31.573 
		46.653,30.26 47.727,29.446 46.403,29.446 	"/>
	<polygon fill="#FFFFFF" points="47.65,34.225 47.247,35.557 45.921,35.552 46.994,36.365 46.592,37.682 47.651,36.868 
		48.708,37.682 48.305,36.365 49.378,35.552 48.054,35.552 	"/>
	<polygon fill="#FFFFFF" points="46,40.33 45.593,41.662 44.271,41.659 45.342,42.475 44.939,43.788 46,42.974 47.054,43.788 
		46.653,42.475 47.727,41.659 46.403,41.659 	"/>
	<polygon fill="#FFFFFF" points="41.658,44.671 41.252,46.003 39.93,46.001 41.001,46.814 40.599,48.128 41.658,47.314 
		42.714,48.128 42.313,46.814 43.386,46.001 42.062,46.001 	"/>
	<polygon fill="#FFFFFF" points="35.549,46.322 35.145,47.657 33.823,47.653 34.896,48.467 34.493,49.781 35.551,48.967 
		36.608,49.781 36.207,48.467 37.28,47.653 35.954,47.653 	"/>
	<polygon fill="#FFFFFF" points="29.443,44.671 29.039,46.003 27.716,46.001 28.787,46.814 28.386,48.128 29.444,47.314 
		30.501,48.128 30.099,46.814 31.171,46.001 29.847,46.001 	"/>
	<polygon fill="#FFFFFF" points="25.103,40.33 24.699,41.662 23.375,41.659 24.445,42.475 24.045,43.788 25.103,42.974 
		26.16,43.788 25.758,42.475 26.831,41.659 25.507,41.659 	"/>
	<polygon fill="#FFFFFF" points="23.45,34.225 23.046,35.557 21.724,35.552 22.794,36.365 22.393,37.682 23.453,36.868 
		24.507,37.682 24.108,36.365 25.181,35.552 23.855,35.552 	"/>
	<polygon fill="#FFFFFF" points="25.103,28.116 24.699,29.45 23.375,29.446 24.445,30.26 24.045,31.573 25.103,30.76 26.16,31.573 
		25.758,30.26 26.831,29.446 25.507,29.446 	"/>
	<polygon fill="#FFFFFF" points="29.443,23.775 29.039,25.108 27.716,25.105 28.787,25.919 28.386,27.233 29.444,26.42 
		30.501,27.233 30.099,25.919 31.171,25.105 29.847,25.105 	"/>
	<polygon fill="#FFFFFF" points="35.549,22.124 35.145,23.456 33.823,23.453 34.896,24.269 34.493,25.581 35.551,24.768 
		36.608,25.581 36.207,24.269 37.28,23.453 35.954,23.453 	"/>
	<path fill="#42C1CA" d="M76.486,28.841c0-0.316,0.15-0.473,0.451-0.473h1.795c0.299,0,0.451,0.157,0.451,0.473v14.772
		c0,0.297-0.15,0.45-0.451,0.45h-1.795c-0.301,0-0.451-0.151-0.451-0.45V28.841z"/>
	<path fill="#42C1CA" d="M83.293,44.061c-0.205,0-0.342-0.038-0.412-0.119c-0.072-0.077-0.105-0.187-0.105-0.328V28.841
		c0-0.299,0.148-0.449,0.449-0.449h4.797c1.309,0,2.389,0.209,3.24,0.627c0.85,0.417,1.523,0.98,2.02,1.688
		c0.498,0.709,0.844,1.536,1.041,2.481c0.195,0.945,0.293,1.948,0.293,3.003c0,1.071-0.092,2.083-0.281,3.038
		c-0.189,0.952-0.529,1.786-1.016,2.503c-0.488,0.717-1.164,1.284-2.021,1.7c-0.859,0.419-1.949,0.626-3.273,0.626h-4.73V44.061z
		 M91.826,36.368c0-1.105-0.098-2.025-0.297-2.758c-0.195-0.736-0.467-1.316-0.814-1.744c-0.346-0.428-0.76-0.725-1.24-0.898
		c-0.48-0.176-1.006-0.262-1.572-0.262h-2.459v11.037h2.293c0.535,0,1.047-0.068,1.535-0.211s0.922-0.41,1.301-0.806
		c0.379-0.395,0.68-0.943,0.91-1.646C91.711,38.378,91.826,37.473,91.826,36.368"/>
	<g opacity="0.5">
		<g>
			<g>
				<defs>
					<rect id="SVGID_5_" x="63.209" y="31.674" width="10.093" height="12.03"/>
				</defs>
				<clipPath id="SVGID_6_">
					<use xlink:href="#SVGID_5_"  overflow="visible"/>
				</clipPath>
				<path clip-path="url(#SVGID_6_)" fill="#42C1CA" d="M65.878,38.409c0.018,0.599,0.085,1.096,0.203,1.487
					c0.116,0.396,0.296,0.704,0.533,0.937c0.235,0.227,0.527,0.389,0.873,0.483c0.347,0.095,0.764,0.142,1.254,0.142
					c0.426,0,0.928-0.03,1.512-0.096c0.582-0.063,1.104-0.118,1.561-0.165c0.219-0.03,0.375-0.027,0.461,0.013
					c0.084,0.04,0.145,0.171,0.176,0.391l0.143,0.778c0.031,0.174,0.027,0.316-0.014,0.424c-0.039,0.111-0.168,0.214-0.389,0.31
					c-0.236,0.094-0.512,0.177-0.826,0.248c-0.316,0.07-0.646,0.131-0.994,0.176c-0.346,0.048-0.693,0.088-1.039,0.119
					c-0.348,0.033-0.662,0.048-0.945,0.048c-1.135,0-2.042-0.167-2.718-0.497c-0.677-0.331-1.197-0.772-1.557-1.322
					c-0.365-0.553-0.606-1.188-0.723-1.903c-0.119-0.717-0.178-1.46-0.178-2.233c0-0.566,0.047-1.206,0.142-1.915
					c0.094-0.709,0.312-1.368,0.648-1.982c0.34-0.615,0.843-1.131,1.514-1.552c0.67-0.414,1.579-0.623,2.729-0.623
					c1.057,0,1.91,0.157,2.564,0.473c0.654,0.314,1.162,0.72,1.525,1.217c0.363,0.495,0.611,1.063,0.744,1.701
					c0.135,0.638,0.211,1.271,0.225,1.903c0.018,0.426-0.055,0.773-0.211,1.041c-0.158,0.268-0.473,0.402-0.945,0.402h-6.268V38.409
					z M68.244,33.823c-0.441,0-0.803,0.063-1.088,0.188c-0.282,0.126-0.516,0.309-0.697,0.549c-0.182,0.241-0.313,0.54-0.39,0.892
					c-0.08,0.352-0.135,0.746-0.166,1.184h4.681c0-0.358-0.031-0.707-0.096-1.043c-0.063-0.337-0.178-0.637-0.34-0.902
					c-0.168-0.267-0.404-0.477-0.711-0.634C69.131,33.902,68.732,33.823,68.244,33.823"/>
			</g>
		</g>
	</g>
	<path fill="#42C1CA" d="M66.125,49.032c0.132,0,0.296,0.008,0.49,0.018s0.394,0.027,0.598,0.054c0.206,0.026,0.404,0.059,0.598,0.1
		c0.195,0.04,0.369,0.091,0.523,0.153c0.08,0.028,0.125,0.072,0.129,0.123c0.004,0.052,0.008,0.098,0.008,0.139l-0.061,0.261
		c-0.01,0.051-0.041,0.081-0.092,0.092c-0.053,0.009-0.113,0.009-0.186,0c-0.133-0.011-0.284-0.028-0.452-0.048
		c-0.169-0.02-0.346-0.038-0.53-0.054c-0.186-0.015-0.365-0.027-0.545-0.037c-0.18-0.011-0.346-0.017-0.499-0.017
		c-0.399,0-0.728,0.049-0.99,0.147c-0.261,0.097-0.465,0.262-0.613,0.498c-0.148,0.237-0.25,0.549-0.307,0.939
		c-0.056,0.39-0.084,0.877-0.084,1.462c0,0.604,0.031,1.106,0.092,1.515c0.062,0.403,0.166,0.729,0.314,0.97
		c0.147,0.24,0.349,0.412,0.605,0.515c0.256,0.102,0.583,0.153,0.982,0.153c0.102,0,0.241-0.007,0.414-0.015
		c0.174-0.013,0.362-0.024,0.562-0.039c0.2-0.014,0.398-0.031,0.599-0.046s0.379-0.033,0.545-0.054c0.121,0,0.188,0.046,0.197,0.139
		l0.047,0.195c0.01,0.049,0.004,0.097-0.016,0.142s-0.072,0.088-0.152,0.128c-0.246,0.1-0.575,0.177-0.983,0.227
		c-0.409,0.05-0.808,0.076-1.196,0.076c-0.636,0-1.143-0.099-1.527-0.293c-0.384-0.193-0.679-0.467-0.883-0.814
		s-0.341-0.761-0.407-1.235c-0.067-0.476-0.101-0.993-0.101-1.557c0-0.501,0.032-0.984,0.101-1.451
		c0.066-0.465,0.203-0.873,0.407-1.228c0.204-0.351,0.499-0.632,0.883-0.84C64.982,49.138,65.49,49.032,66.125,49.032"/>
	<path fill="#42C1CA" d="M72.477,56.782c-0.705,0-1.26-0.117-1.658-0.353c-0.4-0.236-0.699-0.545-0.896-0.93
		c-0.201-0.383-0.324-0.811-0.369-1.28c-0.047-0.47-0.07-0.947-0.07-1.428c0-0.389,0.029-0.801,0.084-1.241
		c0.057-0.439,0.189-0.846,0.4-1.221c0.209-0.373,0.51-0.682,0.904-0.928c0.395-0.245,0.928-0.368,1.604-0.368
		c0.686,0,1.232,0.104,1.643,0.315c0.408,0.208,0.721,0.489,0.936,0.841c0.215,0.354,0.354,0.758,0.42,1.207
		c0.068,0.45,0.102,0.915,0.102,1.395c0,0.471-0.025,0.945-0.076,1.42c-0.053,0.477-0.18,0.905-0.385,1.283
		s-0.514,0.688-0.928,0.927C73.771,56.663,73.203,56.782,72.477,56.782 M72.477,49.786c-0.451,0-0.816,0.069-1.09,0.209
		c-0.275,0.135-0.49,0.343-0.645,0.614s-0.26,0.6-0.314,0.984c-0.057,0.384-0.084,0.824-0.084,1.314
		c0,0.493,0.027,0.932,0.084,1.314c0.055,0.385,0.16,0.712,0.314,0.985c0.154,0.271,0.369,0.479,0.645,0.614
		c0.273,0.14,0.639,0.209,1.09,0.209c0.459,0,0.836-0.066,1.127-0.2c0.291-0.133,0.52-0.333,0.684-0.6
		c0.164-0.266,0.273-0.592,0.338-0.978c0.061-0.384,0.092-0.833,0.092-1.346c0-0.503-0.029-0.945-0.084-1.33
		c-0.057-0.385-0.168-0.711-0.332-0.977c-0.164-0.268-0.391-0.47-0.682-0.606C73.328,49.855,72.945,49.786,72.477,49.786"/>
	<path fill="#42C1CA" d="M81.951,50.89c-0.037-0.276-0.102-0.495-0.199-0.659c-0.098-0.163-0.238-0.279-0.422-0.346
		c-0.186-0.067-0.426-0.099-0.721-0.099c-0.205,0-0.443,0.038-0.715,0.114c-0.27,0.077-0.539,0.169-0.805,0.277
		c-0.266,0.106-0.51,0.215-0.729,0.32c-0.219,0.108-0.387,0.193-0.498,0.253v5.679c0,0.151-0.072,0.229-0.215,0.229H77.25
		c-0.082,0-0.137-0.015-0.162-0.045s-0.039-0.092-0.039-0.184v-7.013c0-0.093,0.014-0.153,0.039-0.184s0.08-0.049,0.162-0.049h0.398
		c0.08,0,0.139,0.014,0.168,0.04c0.031,0.026,0.047,0.091,0.047,0.191l0.002,0.675c0.104-0.072,0.254-0.168,0.453-0.285
		c0.201-0.118,0.43-0.232,0.691-0.346c0.262-0.114,0.543-0.212,0.84-0.299c0.299-0.087,0.594-0.132,0.893-0.132
		c0.471,0,0.846,0.065,1.123,0.192c0.275,0.128,0.49,0.313,0.641,0.552c0.148,0.242,0.244,0.531,0.289,0.867
		c0.047,0.338,0.072,0.717,0.072,1.137v4.65c0,0.15-0.08,0.229-0.234,0.229h-0.422c-0.084,0-0.139-0.015-0.166-0.045
		c-0.025-0.03-0.037-0.093-0.037-0.184v-4.48C82.006,51.52,81.988,51.166,81.951,50.89"/>
	<path fill="#42C1CA" d="M89.301,50.89c-0.035-0.276-0.102-0.495-0.199-0.659c-0.098-0.163-0.238-0.279-0.422-0.346
		c-0.184-0.067-0.426-0.099-0.721-0.099c-0.205,0-0.443,0.038-0.713,0.114c-0.271,0.077-0.539,0.169-0.807,0.277
		c-0.266,0.106-0.51,0.215-0.727,0.32c-0.221,0.108-0.387,0.193-0.498,0.253v5.679c0,0.151-0.074,0.229-0.217,0.229h-0.4
		c-0.082,0-0.135-0.015-0.16-0.045c-0.027-0.03-0.039-0.092-0.039-0.184v-7.013c0-0.093,0.012-0.153,0.039-0.184
		c0.023-0.03,0.076-0.049,0.16-0.049h0.4c0.082,0,0.137,0.014,0.168,0.04s0.047,0.091,0.047,0.191l0.002,0.675
		c0.102-0.072,0.252-0.168,0.453-0.285c0.199-0.118,0.432-0.232,0.693-0.346c0.262-0.114,0.539-0.212,0.838-0.299
		s0.596-0.132,0.891-0.132c0.473,0,0.848,0.065,1.125,0.192c0.277,0.128,0.488,0.313,0.639,0.552
		c0.148,0.242,0.246,0.531,0.291,0.867c0.047,0.338,0.07,0.717,0.07,1.137v4.65c0,0.15-0.078,0.229-0.234,0.229h-0.422
		c-0.084,0-0.139-0.015-0.166-0.045c-0.025-0.03-0.037-0.093-0.037-0.184v-4.48C89.355,51.52,89.336,51.166,89.301,50.89"/>
	<path fill="#42C1CA" d="M94.693,49.034c0.646,0,1.162,0.099,1.559,0.292c0.393,0.195,0.703,0.447,0.928,0.759
		s0.377,0.672,0.453,1.076c0.078,0.403,0.117,0.814,0.117,1.234c0,0.236-0.045,0.419-0.133,0.553
		c-0.086,0.132-0.252,0.198-0.498,0.198h-4.559c0.021,0.512,0.059,0.95,0.117,1.314c0.053,0.362,0.158,0.657,0.305,0.883
		c0.148,0.225,0.357,0.388,0.631,0.49c0.27,0.104,0.631,0.153,1.08,0.153c0.152,0,0.338-0.008,0.553-0.024
		c0.217-0.016,0.436-0.034,0.66-0.061c0.229-0.027,0.443-0.049,0.652-0.068c0.209-0.022,0.379-0.036,0.514-0.048
		c0.102-0.01,0.168,0.029,0.201,0.122l0.045,0.245c0.031,0.113-0.027,0.2-0.17,0.261c-0.123,0.042-0.287,0.085-0.492,0.132
		c-0.203,0.045-0.424,0.088-0.66,0.123c-0.234,0.034-0.473,0.063-0.715,0.085c-0.24,0.021-0.455,0.029-0.65,0.029
		c-0.686,0-1.225-0.106-1.619-0.323c-0.395-0.215-0.691-0.5-0.891-0.858c-0.197-0.358-0.324-0.775-0.377-1.252
		c-0.049-0.474-0.074-0.968-0.074-1.479c0-0.438,0.025-0.888,0.074-1.343c0.053-0.455,0.18-0.867,0.377-1.237
		c0.199-0.367,0.502-0.668,0.906-0.903C93.434,49.151,93.988,49.034,94.693,49.034 M94.693,49.786c-0.471,0-0.842,0.06-1.113,0.179
		c-0.27,0.118-0.48,0.291-0.629,0.516c-0.146,0.227-0.244,0.505-0.293,0.833c-0.043,0.33-0.078,0.705-0.1,1.126h4.299
		c-0.012-0.319-0.035-0.638-0.078-0.957c-0.041-0.318-0.135-0.604-0.285-0.854c-0.146-0.255-0.363-0.457-0.645-0.611
		C95.572,49.863,95.186,49.786,94.693,49.786"/>
	<path fill="#42C1CA" d="M101.969,49.032c0.133,0,0.295,0.008,0.488,0.018c0.195,0.01,0.395,0.027,0.6,0.054s0.402,0.059,0.598,0.1
		c0.195,0.04,0.369,0.091,0.523,0.153c0.082,0.028,0.125,0.072,0.131,0.123c0.006,0.052,0.008,0.098,0.008,0.139l-0.061,0.261
		c-0.01,0.051-0.043,0.081-0.094,0.092c-0.051,0.009-0.113,0.009-0.184,0c-0.133-0.011-0.287-0.028-0.453-0.048
		c-0.17-0.02-0.346-0.038-0.529-0.054c-0.186-0.015-0.367-0.027-0.545-0.037c-0.18-0.011-0.346-0.017-0.498-0.017
		c-0.402,0-0.729,0.049-0.99,0.147c-0.262,0.097-0.467,0.262-0.617,0.498c-0.148,0.237-0.248,0.549-0.307,0.939
		c-0.057,0.389-0.082,0.877-0.082,1.462c0,0.604,0.029,1.106,0.092,1.515c0.061,0.403,0.168,0.729,0.316,0.97
		c0.145,0.24,0.348,0.412,0.605,0.515c0.254,0.102,0.58,0.153,0.982,0.153c0.1,0,0.238-0.007,0.412-0.015
		c0.174-0.013,0.361-0.024,0.561-0.039c0.201-0.016,0.398-0.031,0.6-0.046c0.197-0.015,0.381-0.033,0.543-0.054
		c0.125,0,0.191,0.046,0.199,0.139l0.047,0.195c0.01,0.049,0.006,0.097-0.016,0.142s-0.072,0.088-0.152,0.128
		c-0.246,0.1-0.574,0.177-0.982,0.227c-0.41,0.05-0.809,0.076-1.197,0.076c-0.635,0-1.145-0.099-1.527-0.293
		c-0.385-0.193-0.678-0.467-0.885-0.814c-0.203-0.348-0.34-0.761-0.404-1.235c-0.068-0.476-0.1-0.993-0.1-1.557
		c0-0.501,0.031-0.984,0.1-1.451c0.066-0.465,0.201-0.873,0.404-1.228c0.205-0.351,0.5-0.632,0.885-0.84
		C100.824,49.138,101.334,49.032,101.969,49.032"/>
	<path fill="#42C1CA" d="M109.303,56.322c0.008,0.063,0.004,0.107-0.018,0.137c-0.023,0.03-0.051,0.057-0.09,0.079
		c-0.074,0.029-0.17,0.062-0.295,0.09c-0.121,0.03-0.254,0.059-0.398,0.085c-0.143,0.026-0.293,0.044-0.445,0.054
		s-0.297,0.016-0.43,0.016c-0.576,0-0.967-0.132-1.168-0.393c-0.203-0.259-0.303-0.636-0.303-1.128v-5.385h-0.891
		c-0.123,0-0.184-0.059-0.184-0.17v-0.338c0-0.123,0.061-0.185,0.184-0.185h0.904v-1.703c0-0.113,0.059-0.184,0.172-0.216
		l0.455-0.137c0.094-0.03,0.154-0.03,0.18,0c0.027,0.03,0.039,0.087,0.039,0.171v1.885h1.688c0.082,0,0.131,0.015,0.145,0.039
		c0.018,0.027,0.023,0.07,0.023,0.133v0.351c0,0.062-0.006,0.105-0.023,0.132c-0.016,0.025-0.063,0.038-0.145,0.038h-1.688V55
		c0,0.176,0.01,0.323,0.027,0.445c0.02,0.125,0.066,0.226,0.139,0.308c0.072,0.081,0.178,0.142,0.313,0.185
		c0.141,0.04,0.322,0.061,0.547,0.061c0.053,0,0.119,0,0.209-0.006c0.086-0.005,0.178-0.013,0.275-0.017
		c0.096-0.006,0.188-0.009,0.277-0.016c0.084-0.005,0.158-0.013,0.221-0.025c0.08-0.009,0.135-0.004,0.162,0.018
		c0.023,0.021,0.047,0.062,0.068,0.122L109.303,56.322z"/>
	<path fill="#42C1CA" d="M111.494,47.346c0,0.152-0.029,0.286-0.092,0.399c-0.059,0.113-0.205,0.17-0.43,0.17
		c-0.234,0-0.381-0.057-0.438-0.17c-0.055-0.113-0.084-0.245-0.084-0.399s0.033-0.282,0.102-0.385
		c0.064-0.101,0.207-0.152,0.42-0.152c0.215,0,0.355,0.048,0.422,0.146C111.463,47.052,111.494,47.182,111.494,47.346
		 M110.561,49.418c0-0.092,0.016-0.153,0.055-0.185c0.033-0.03,0.092-0.045,0.176-0.045h0.383c0.082,0,0.135,0.015,0.162,0.045
		c0.025,0.03,0.037,0.091,0.037,0.185v7.012c0,0.092-0.014,0.153-0.037,0.185c-0.027,0.029-0.082,0.045-0.162,0.045h-0.383
		c-0.084,0-0.143-0.016-0.176-0.045c-0.039-0.031-0.055-0.091-0.055-0.185V49.418z"/>
	<path fill="#42C1CA" d="M118.254,50.89c-0.035-0.276-0.102-0.495-0.199-0.659c-0.098-0.163-0.238-0.279-0.422-0.346
		c-0.184-0.067-0.424-0.099-0.721-0.099c-0.205,0-0.443,0.038-0.715,0.114c-0.271,0.077-0.541,0.169-0.807,0.277
		c-0.264,0.106-0.51,0.215-0.727,0.32c-0.221,0.108-0.387,0.193-0.5,0.253v5.679c0,0.151-0.074,0.229-0.215,0.229h-0.4
		c-0.082,0-0.135-0.015-0.16-0.045s-0.035-0.092-0.035-0.184v-7.013c0-0.093,0.012-0.153,0.035-0.184
		c0.023-0.031,0.078-0.049,0.16-0.049h0.4c0.082,0,0.139,0.014,0.17,0.04c0.029,0.026,0.045,0.091,0.045,0.191l0.002,0.675
		c0.104-0.072,0.254-0.168,0.455-0.285c0.199-0.118,0.43-0.232,0.691-0.346c0.262-0.114,0.543-0.212,0.838-0.299
		c0.297-0.087,0.598-0.132,0.893-0.132c0.471,0,0.846,0.065,1.123,0.192c0.279,0.128,0.49,0.313,0.639,0.552
		c0.148,0.242,0.244,0.531,0.291,0.867c0.049,0.338,0.072,0.717,0.072,1.137v4.65c0,0.15-0.08,0.229-0.236,0.229h-0.422
		c-0.082,0-0.139-0.015-0.162-0.045c-0.029-0.03-0.039-0.093-0.039-0.184v-4.48C118.309,51.52,118.289,51.166,118.254,50.89"/>
	<path fill="#42C1CA" d="M126.67,56.828c0,0.368-0.025,0.718-0.078,1.044c-0.051,0.328-0.166,0.611-0.346,0.854
		c-0.18,0.238-0.443,0.43-0.789,0.564c-0.348,0.139-0.824,0.207-1.426,0.207c-0.193,0-0.404-0.006-0.629-0.016
		c-0.227-0.01-0.453-0.028-0.674-0.053c-0.227-0.028-0.441-0.061-0.646-0.101c-0.203-0.04-0.383-0.091-0.535-0.153
		c-0.115-0.04-0.172-0.086-0.178-0.137c-0.006-0.052,0.002-0.097,0.023-0.137l0.045-0.217c0.008-0.091,0.092-0.123,0.246-0.091
		c0.355,0.052,0.744,0.083,1.158,0.101c0.412,0.015,0.775,0.022,1.08,0.022c0.42,0,0.758-0.032,1.014-0.101
		c0.256-0.066,0.449-0.169,0.582-0.306c0.135-0.138,0.221-0.313,0.254-0.528c0.035-0.215,0.053-0.467,0.053-0.751l-0.014-0.707
		l-0.033-0.03c-0.531,0.214-0.965,0.353-1.303,0.414c-0.34,0.061-0.66,0.091-0.967,0.091c-0.572,0-1.043-0.086-1.414-0.261
		c-0.367-0.174-0.658-0.426-0.873-0.752s-0.365-0.731-0.453-1.212s-0.131-1.021-0.131-1.626c0-0.646,0.047-1.209,0.145-1.695
		s0.262-0.896,0.492-1.228s0.531-0.581,0.904-0.745c0.375-0.163,0.836-0.246,1.387-0.246c0.656,0,1.191,0.036,1.605,0.104
		c0.414,0.065,0.783,0.139,1.111,0.223c0.193,0.052,0.311,0.124,0.346,0.221c0.037,0.097,0.053,0.202,0.053,0.313L126.67,56.828z
		 M125.811,50.031c-0.256-0.052-0.572-0.097-0.951-0.14c-0.379-0.038-0.791-0.06-1.242-0.06c-0.295,0-0.574,0.032-0.828,0.1
		c-0.258,0.065-0.479,0.202-0.662,0.406c-0.186,0.205-0.328,0.505-0.43,0.896c-0.102,0.394-0.152,0.92-0.152,1.575
		c0,0.592,0.027,1.095,0.084,1.502c0.055,0.409,0.158,0.741,0.305,0.998c0.148,0.255,0.346,0.443,0.59,0.561
		c0.246,0.117,0.561,0.175,0.939,0.175c0.295,0,0.648-0.034,1.057-0.105c0.41-0.074,0.838-0.176,1.291-0.31V50.031L125.811,50.031z"
		/>
	<path fill="#42C1CA" d="M134.986,49.034c0.645,0,1.162,0.099,1.557,0.292c0.395,0.195,0.703,0.447,0.93,0.759
		c0.225,0.312,0.375,0.672,0.453,1.076c0.076,0.403,0.115,0.814,0.115,1.234c0,0.236-0.043,0.419-0.131,0.553
		c-0.088,0.132-0.254,0.198-0.502,0.198h-4.555c0.02,0.512,0.061,0.95,0.115,1.314c0.055,0.362,0.158,0.657,0.307,0.883
		c0.148,0.225,0.357,0.388,0.631,0.49c0.27,0.104,0.629,0.153,1.08,0.153c0.152,0,0.336-0.008,0.551-0.024
		c0.215-0.016,0.439-0.034,0.662-0.061c0.223-0.027,0.443-0.049,0.65-0.068c0.211-0.022,0.383-0.036,0.516-0.048
		c0.1-0.01,0.168,0.029,0.197,0.122l0.047,0.245c0.031,0.113-0.025,0.2-0.168,0.261c-0.123,0.042-0.287,0.085-0.492,0.132
		c-0.205,0.045-0.424,0.088-0.66,0.123c-0.234,0.034-0.473,0.063-0.715,0.085c-0.24,0.021-0.455,0.029-0.652,0.029
		c-0.686,0-1.223-0.106-1.619-0.323c-0.393-0.215-0.689-0.5-0.889-0.858s-0.324-0.775-0.375-1.252
		c-0.053-0.474-0.078-0.968-0.078-1.479c0-0.438,0.025-0.888,0.078-1.343c0.051-0.455,0.176-0.867,0.375-1.237
		c0.199-0.367,0.502-0.668,0.906-0.903C133.725,49.151,134.279,49.034,134.986,49.034 M134.986,49.786
		c-0.471,0-0.842,0.06-1.113,0.179c-0.27,0.118-0.48,0.291-0.629,0.516c-0.146,0.226-0.244,0.505-0.291,0.833
		c-0.045,0.33-0.08,0.705-0.1,1.126h4.295c-0.01-0.319-0.033-0.638-0.076-0.957c-0.041-0.318-0.135-0.604-0.285-0.854
		c-0.145-0.255-0.363-0.457-0.645-0.611C135.865,49.863,135.477,49.786,134.986,49.786"/>
	<path fill="#42C1CA" d="M140.41,54.944c0.035,0.275,0.105,0.495,0.213,0.658c0.107,0.164,0.256,0.279,0.445,0.345
		c0.188,0.067,0.43,0.101,0.725,0.101c0.203,0,0.441-0.037,0.709-0.117c0.273-0.075,0.539-0.167,0.805-0.274
		s0.508-0.215,0.725-0.321c0.219-0.106,0.385-0.189,0.5-0.253v-5.663c0-0.151,0.07-0.23,0.215-0.23h0.398
		c0.082,0,0.135,0.016,0.162,0.047c0.025,0.03,0.037,0.091,0.037,0.184v7.011c0,0.094-0.014,0.153-0.037,0.186
		c-0.027,0.031-0.08,0.046-0.162,0.046h-0.398c-0.08,0-0.141-0.015-0.18-0.046c-0.035-0.03-0.053-0.09-0.053-0.186v-0.688
		c-0.102,0.071-0.25,0.166-0.445,0.284c-0.193,0.116-0.422,0.236-0.684,0.352c-0.258,0.118-0.537,0.216-0.834,0.3
		c-0.297,0.08-0.592,0.122-0.889,0.122c-0.471,0-0.848-0.065-1.129-0.191c-0.281-0.127-0.5-0.31-0.652-0.544
		c-0.152-0.236-0.256-0.523-0.307-0.868c-0.053-0.342-0.078-0.724-0.078-1.143v-4.635c0-0.152,0.078-0.229,0.236-0.229h0.422
		c0.082,0,0.137,0.015,0.164,0.045c0.025,0.031,0.037,0.091,0.037,0.185v4.469C140.355,54.315,140.375,54.669,140.41,54.944"/>
	<path fill="#42C1CA" d="M150.145,49.954c-0.203,0.041-0.406,0.099-0.605,0.17c-0.199,0.072-0.393,0.145-0.576,0.221
		c-0.186,0.078-0.35,0.153-0.498,0.225c-0.15,0.071-0.264,0.129-0.346,0.17v5.693c0,0.15-0.078,0.229-0.234,0.229h-0.422
		c-0.084,0-0.139-0.015-0.164-0.046c-0.027-0.03-0.039-0.09-0.039-0.183V49.42c0-0.152,0.068-0.231,0.203-0.231h0.406
		c0.08,0,0.143,0.017,0.18,0.047c0.035,0.03,0.055,0.091,0.055,0.185v0.676c0.072-0.054,0.178-0.124,0.322-0.217
		c0.143-0.09,0.305-0.185,0.482-0.276c0.18-0.09,0.367-0.184,0.568-0.276c0.199-0.091,0.402-0.164,0.605-0.215
		c0.053-0.021,0.084-0.021,0.1,0c0.016,0.021,0.027,0.057,0.039,0.107l0.061,0.522C150.293,49.854,150.248,49.923,150.145,49.954"/>
	<path fill="#42C1CA" d="M154.135,56.782c-0.707,0-1.26-0.117-1.656-0.353c-0.4-0.236-0.699-0.545-0.898-0.93
		c-0.199-0.383-0.322-0.811-0.367-1.28c-0.047-0.47-0.072-0.947-0.072-1.428c0-0.389,0.029-0.801,0.086-1.241
		c0.057-0.439,0.189-0.846,0.4-1.221c0.209-0.373,0.51-0.682,0.904-0.928c0.393-0.245,0.93-0.368,1.604-0.368
		c0.686,0,1.232,0.104,1.641,0.315c0.408,0.208,0.723,0.489,0.938,0.841c0.215,0.354,0.354,0.758,0.422,1.207
		c0.064,0.45,0.1,0.915,0.1,1.395c0,0.471-0.027,0.945-0.08,1.42c-0.049,0.477-0.176,0.905-0.381,1.283
		c-0.203,0.378-0.514,0.688-0.93,0.927C155.432,56.663,154.861,56.782,154.135,56.782 M154.135,49.786
		c-0.451,0-0.814,0.069-1.09,0.209c-0.275,0.135-0.492,0.343-0.645,0.614s-0.258,0.6-0.314,0.984
		c-0.055,0.384-0.086,0.824-0.086,1.314c0,0.493,0.031,0.932,0.086,1.314c0.057,0.385,0.162,0.712,0.314,0.985
		c0.152,0.271,0.369,0.479,0.645,0.614c0.275,0.14,0.639,0.209,1.09,0.209c0.459,0,0.836-0.066,1.127-0.2
		c0.293-0.133,0.518-0.333,0.686-0.6c0.162-0.266,0.273-0.592,0.336-0.978c0.063-0.384,0.092-0.833,0.092-1.346
		c0-0.503-0.029-0.945-0.084-1.33c-0.057-0.385-0.168-0.711-0.33-0.977c-0.164-0.268-0.391-0.47-0.684-0.606
		C154.986,49.855,154.605,49.786,154.135,49.786"/>
	<path fill="#42C1CA" d="M159.721,59.117c0,0.1-0.02,0.167-0.055,0.199c-0.035,0.028-0.098,0.044-0.18,0.044h-0.422
		c-0.137,0-0.203-0.082-0.203-0.246v-9.696c0-0.152,0.066-0.229,0.203-0.229h0.422c0.082,0,0.143,0.015,0.18,0.045
		c0.035,0.031,0.055,0.091,0.055,0.185l-0.016,0.675c0.102-0.071,0.252-0.167,0.455-0.285c0.195-0.116,0.424-0.232,0.68-0.346
		c0.256-0.112,0.529-0.211,0.822-0.3c0.291-0.085,0.586-0.13,0.883-0.13c0.449,0,0.826,0.077,1.129,0.232
		c0.299,0.152,0.541,0.385,0.721,0.698c0.18,0.312,0.305,0.702,0.377,1.172c0.07,0.472,0.105,1.019,0.105,1.643
		c0,0.654-0.043,1.232-0.131,1.733c-0.088,0.502-0.236,0.921-0.451,1.259c-0.215,0.339-0.508,0.59-0.881,0.761
		c-0.371,0.169-0.836,0.252-1.398,0.252c-0.295,0-0.635-0.032-1.018-0.096c-0.385-0.068-0.805-0.199-1.26-0.402l-0.018,0.03V59.117z
		 M159.721,55.63c0.459,0.145,0.879,0.247,1.26,0.31c0.383,0.061,0.758,0.091,1.125,0.091c0.377,0,0.686-0.057,0.926-0.17
		c0.24-0.112,0.43-0.296,0.57-0.545c0.145-0.251,0.242-0.589,0.299-1.009c0.055-0.421,0.082-0.938,0.082-1.553
		c0-0.607-0.025-1.101-0.076-1.485c-0.049-0.383-0.135-0.686-0.25-0.906c-0.119-0.219-0.277-0.373-0.477-0.454
		c-0.195-0.082-0.443-0.122-0.74-0.122c-0.213,0-0.451,0.038-0.711,0.115s-0.518,0.167-0.773,0.269
		c-0.254,0.104-0.49,0.207-0.711,0.314c-0.217,0.109-0.395,0.197-0.525,0.271v4.875H159.721z"/>
	<path fill="#42C1CA" d="M169.293,49.034c0.645,0,1.166,0.099,1.559,0.292c0.395,0.195,0.703,0.447,0.928,0.759
		s0.377,0.672,0.453,1.076c0.078,0.402,0.115,0.814,0.115,1.234c0,0.236-0.041,0.419-0.129,0.553
		c-0.088,0.132-0.252,0.198-0.5,0.198h-4.557c0.021,0.512,0.059,0.95,0.113,1.314c0.059,0.362,0.16,0.657,0.309,0.883
		c0.146,0.225,0.357,0.388,0.629,0.49c0.27,0.104,0.631,0.153,1.08,0.153c0.154,0,0.34-0.008,0.555-0.024
		c0.213-0.016,0.434-0.034,0.66-0.061c0.227-0.027,0.441-0.049,0.65-0.068c0.213-0.022,0.383-0.036,0.516-0.048
		c0.102-0.01,0.168,0.029,0.199,0.122l0.045,0.245c0.029,0.113-0.025,0.2-0.168,0.261c-0.125,0.042-0.289,0.085-0.492,0.132
		c-0.205,0.045-0.422,0.088-0.658,0.123c-0.236,0.034-0.475,0.063-0.717,0.085c-0.24,0.021-0.457,0.029-0.652,0.029
		c-0.684,0-1.225-0.106-1.617-0.323c-0.396-0.215-0.693-0.5-0.889-0.858c-0.201-0.358-0.326-0.775-0.377-1.252
		c-0.051-0.474-0.078-0.968-0.078-1.479c0-0.438,0.027-0.888,0.078-1.343s0.176-0.867,0.377-1.237
		c0.195-0.367,0.5-0.668,0.902-0.903C168.033,49.151,168.588,49.034,169.293,49.034 M169.293,49.786c-0.469,0-0.84,0.06-1.111,0.179
		c-0.27,0.118-0.48,0.291-0.629,0.516c-0.146,0.227-0.244,0.505-0.293,0.833c-0.045,0.33-0.076,0.705-0.098,1.126h4.297
		c-0.01-0.319-0.037-0.638-0.08-0.957c-0.039-0.318-0.133-0.604-0.283-0.854c-0.148-0.255-0.361-0.457-0.643-0.611
		S169.785,49.786,169.293,49.786"/>
</g>
</svg>
